<svg width="14" height="12" viewBox="0 0 14 12" fill="none" xmlns="http://www.w3.org/2000/svg">
<path d="M4.16919 11.2237C3.31408 11.2204 2.57828 11.0099 1.96181 10.5923C1.34864 10.1747 0.876341 9.56984 0.544902 8.7777C0.216777 7.98556 0.0543715 7.03267 0.0576859 5.91903C0.057686 4.80871 0.221749 3.86245 0.549874 3.08026C0.881313 2.29806 1.35361 1.70313 1.96678 1.29546C2.58325 0.88447 3.31739 0.678978 4.16919 0.678978C5.02099 0.678978 5.75347 0.88447 6.36664 1.29546C6.98311 1.70644 7.45707 2.30303 7.78851 3.08523C8.11995 3.86411 8.28401 4.80871 8.2807 5.91903C8.2807 7.03599 8.11498 7.99053 7.78354 8.78267C7.45541 9.57481 6.98477 10.1797 6.37161 10.5973C5.75844 11.0149 5.0243 11.2237 4.16919 11.2237ZM4.16919 9.43892C4.75252 9.43892 5.2182 9.1456 5.56621 8.55895C5.91422 7.9723 6.08657 7.09233 6.08325 5.91903C6.08325 5.14678 6.00371 4.50379 5.84462 3.99006C5.68884 3.47633 5.46678 3.0902 5.17842 2.83168C4.89339 2.57315 4.55698 2.44389 4.16919 2.44389C3.58917 2.44389 3.12516 2.7339 2.77715 3.31392C2.42914 3.89394 2.25347 4.76231 2.25016 5.91903C2.25016 6.70123 2.32805 7.35417 2.48382 7.87784C2.64291 8.3982 2.86663 8.7893 3.15499 9.05114C3.44334 9.30966 3.78141 9.43892 4.16919 9.43892ZM13.4054 0.818183L13.4054 11L11.2527 11L11.2527 2.86151L11.193 2.86151L8.86133 4.32315L8.86133 2.41406L11.3819 0.818183L13.4054 0.818183Z" fill="#F9AF15"/>
</svg>
