<svg width="17" height="12" viewBox="0 0 17 12" fill="none" xmlns="http://www.w3.org/2000/svg">
<path d="M4.302 11.2237C3.44689 11.2204 2.71109 11.0099 2.09462 10.5923C1.48145 10.1747 1.00915 9.56984 0.677714 8.7777C0.349589 7.98556 0.187184 7.03267 0.190498 5.91903C0.190498 4.80871 0.354561 3.86245 0.682686 3.08026C1.01413 2.29806 1.48643 1.70313 2.09959 1.29546C2.71607 0.88447 3.45021 0.678978 4.302 0.678978C5.1538 0.678978 5.88629 0.88447 6.49945 1.29546C7.11593 1.70644 7.58988 2.30303 7.92132 3.08523C8.25276 3.86411 8.41682 4.80871 8.41351 5.91903C8.41351 7.03599 8.24779 7.99053 7.91635 8.78267C7.58823 9.57481 7.11758 10.1797 6.50442 10.5973C5.89126 11.0149 5.15712 11.2237 4.302 11.2237ZM4.302 9.43892C4.88534 9.43892 5.35101 9.1456 5.69902 8.55895C6.04703 7.9723 6.21938 7.09233 6.21607 5.91903C6.21607 5.14678 6.13652 4.50379 5.97743 3.99006C5.82165 3.47633 5.59959 3.0902 5.31124 2.83168C5.0262 2.57315 4.68979 2.44389 4.302 2.44389C3.72199 2.44389 3.25797 2.7339 2.90996 3.31392C2.56195 3.89394 2.38628 4.76231 2.38297 5.91903C2.38297 6.70123 2.46086 7.35417 2.61663 7.87784C2.77573 8.3982 2.99945 8.7893 3.2878 9.05114C3.57615 9.30966 3.91422 9.43892 4.302 9.43892ZM9.10849 11L9.10849 9.44886L12.7328 6.09304C13.041 5.79475 13.2995 5.52628 13.5083 5.28764C13.7205 5.04901 13.8812 4.81534 13.9906 4.58665C14.1 4.35464 14.1547 4.1044 14.1547 3.83594C14.1547 3.53764 14.0867 3.28078 13.9508 3.06534C13.8149 2.84659 13.6293 2.67921 13.394 2.56321C13.1587 2.44389 12.8919 2.38423 12.5936 2.38423C12.282 2.38423 12.0102 2.44721 11.7782 2.57315C11.5462 2.6991 11.3672 2.87974 11.2413 3.11506C11.1154 3.35038 11.0524 3.63045 11.0524 3.95526L9.00906 3.95526C9.00906 3.28906 9.15986 2.7107 9.46147 2.22017C9.76308 1.72964 10.1857 1.35014 10.7292 1.08168C11.2728 0.813211 11.8992 0.678978 12.6085 0.678978C13.3377 0.678978 13.9724 0.808239 14.5126 1.06676C15.0562 1.32197 15.4788 1.67661 15.7804 2.13068C16.082 2.58475 16.2328 3.10511 16.2328 3.69176C16.2328 4.07623 16.1565 4.45573 16.0041 4.83026C15.8549 5.20478 15.5881 5.62074 15.2037 6.07813C14.8192 6.5322 14.2773 7.07742 13.5779 7.71378L12.0914 9.17046L12.0914 9.24006L16.367 9.24006L16.367 11L9.10849 11Z" fill="#F9AF15"/>
</svg>
