<svg width="18" height="12" viewBox="0 0 18 12" fill="none" xmlns="http://www.w3.org/2000/svg">
<path d="M4.79029 11.2237C3.93517 11.2204 3.19938 11.0099 2.5829 10.5923C1.96974 10.1747 1.49743 9.56984 1.166 8.7777C0.83787 7.98556 0.675465 7.03267 0.67878 5.91903C0.67878 4.80871 0.842842 3.86245 1.17097 3.08026C1.50241 2.29806 1.97471 1.70313 2.58787 1.29546C3.20435 0.88447 3.93849 0.678977 4.79029 0.678977C5.64209 0.678977 6.37457 0.88447 6.98773 1.29546C7.60421 1.70644 8.07816 2.30303 8.4096 3.08523C8.74104 3.86411 8.90511 4.80871 8.90179 5.91903C8.90179 7.03599 8.73607 7.99053 8.40463 8.78267C8.07651 9.57481 7.60586 10.1797 6.9927 10.5973C6.37954 11.0149 5.6454 11.2237 4.79029 11.2237ZM4.79029 9.43892C5.37362 9.43892 5.83929 9.1456 6.1873 8.55895C6.53531 7.9723 6.70766 7.09233 6.70435 5.91903C6.70435 5.14678 6.6248 4.50379 6.46571 3.99006C6.30994 3.47633 6.08787 3.0902 5.79952 2.83168C5.51448 2.57315 5.17807 2.44389 4.79029 2.44389C4.21027 2.44389 3.74625 2.7339 3.39824 3.31392C3.05023 3.89394 2.87457 4.76231 2.87125 5.91903C2.87125 6.70123 2.94914 7.35417 3.10492 7.87784C3.26401 8.3982 3.48773 8.7893 3.77608 9.05114C4.06443 9.30966 4.4025 9.43892 4.79029 9.43892ZM13.3603 11.1392C12.6178 11.1392 11.9566 11.0116 11.3766 10.7564C10.7999 10.4979 10.3442 10.1432 10.0094 9.69247C9.67797 9.2384 9.50728 8.71473 9.49734 8.12145L11.665 8.12145C11.6782 8.37003 11.7594 8.58878 11.9086 8.7777C12.061 8.96331 12.2632 9.10748 12.5151 9.21023C12.767 9.31297 13.0504 9.36435 13.3652 9.36435C13.6934 9.36435 13.9834 9.30635 14.2353 9.19034C14.4872 9.07434 14.6844 8.91359 14.8269 8.7081C14.9694 8.50261 15.0407 8.26563 15.0407 7.99716C15.0407 7.72538 14.9644 7.48509 14.812 7.27628C14.6628 7.06416 14.4474 6.89844 14.1657 6.77912C13.8873 6.6598 13.5558 6.60014 13.1713 6.60014L12.2218 6.60014L12.2218 5.01918L13.1713 5.01918C13.4962 5.01918 13.7828 4.96283 14.0314 4.85014C14.2833 4.73745 14.4789 4.58168 14.6181 4.38281C14.7573 4.18064 14.8269 3.94531 14.8269 3.67685C14.8269 3.42164 14.7656 3.19792 14.6429 3.00568C14.5236 2.81013 14.3546 2.65767 14.1358 2.5483C13.9204 2.43892 13.6685 2.38423 13.3802 2.38423C13.0885 2.38423 12.8217 2.43726 12.5797 2.54332C12.3378 2.64607 12.1439 2.79356 11.998 2.9858C11.8522 3.17803 11.7743 3.40341 11.7644 3.66193L9.70117 3.66193C9.71112 3.07528 9.87849 2.55824 10.2033 2.1108C10.5281 1.66335 10.9656 1.31368 11.5158 1.06179C12.0693 0.806582 12.6941 0.678978 13.3901 0.678978C14.0927 0.678978 14.7076 0.806582 15.2346 1.06179C15.7615 1.317 16.1709 1.6617 16.4625 2.09588C16.7575 2.52675 16.9034 3.01065 16.9 3.54759C16.9034 4.11766 16.726 4.59328 16.3681 4.97443C16.0134 5.35559 15.5511 5.59754 14.981 5.70028L14.981 5.77983C15.7301 5.87595 16.3001 6.13613 16.6912 6.56037C17.0856 6.9813 17.2812 7.50829 17.2779 8.14134C17.2812 8.72136 17.1138 9.23674 16.7757 9.6875C16.441 10.1383 15.9786 10.4929 15.3887 10.7514C14.7987 11.0099 14.1226 11.1392 13.3603 11.1392Z" fill="#F9AF15"/>
</svg>
