<svg width="18" height="12" viewBox="0 0 18 12" fill="none" xmlns="http://www.w3.org/2000/svg">
<path d="M4.63208 11.2237C3.77697 11.2204 3.04117 11.0099 2.4247 10.5923C1.81153 10.1747 1.33923 9.56984 1.00779 8.7777C0.679667 7.98556 0.517262 7.03267 0.520577 5.91903C0.520577 4.80871 0.684639 3.86245 1.01276 3.08026C1.3442 2.29806 1.8165 1.70313 2.42967 1.29546C3.04615 0.88447 3.78028 0.678978 4.63208 0.678978C5.48388 0.678978 6.21636 0.88447 6.82953 1.29546C7.446 1.70644 7.91996 2.30303 8.2514 3.08523C8.58284 3.86411 8.7469 4.80871 8.74359 5.91903C8.74359 7.03599 8.57787 7.99053 8.24643 8.78267C7.9183 9.57481 7.44766 10.1797 6.8345 10.5973C6.22133 11.0149 5.4872 11.2237 4.63208 11.2237ZM4.63208 9.43892C5.21542 9.43892 5.68109 9.1456 6.0291 8.55895C6.37711 7.9723 6.54946 7.09233 6.54614 5.91903C6.54614 5.14678 6.4666 4.50379 6.30751 3.99006C6.15173 3.47633 5.92967 3.0902 5.64132 2.83168C5.35628 2.57315 5.01987 2.44389 4.63208 2.44389C4.05206 2.44389 3.58805 2.7339 3.24004 3.31392C2.89203 3.89394 2.71636 4.76231 2.71305 5.91903C2.71305 6.70123 2.79094 7.35417 2.94671 7.87784C3.1058 8.3982 3.32953 8.7893 3.61788 9.05114C3.90623 9.30966 4.2443 9.43892 4.63208 9.43892ZM9.28445 9.21023L9.28445 7.51492L13.5352 0.818183L14.9968 0.818183L14.9968 3.16477L14.1317 3.16477L11.4521 7.40554L11.4521 7.48509L17.4925 7.48509L17.4925 9.21023L9.28445 9.21023ZM14.1715 11L14.1715 8.69318L14.2113 7.94247L14.2113 0.818183L16.2298 0.818183L16.2298 11L14.1715 11Z" fill="#F9AF15"/>
</svg>
