<svg width="18" height="12" viewBox="0 0 18 12" fill="none" xmlns="http://www.w3.org/2000/svg">
<path d="M4.99536 11.2237C4.14025 11.2204 3.40445 11.0099 2.78798 10.5923C2.17481 10.1747 1.70251 9.56984 1.37107 8.7777C1.04295 7.98556 0.880543 7.03267 0.883858 5.91903C0.883858 4.80871 1.04792 3.86245 1.37605 3.08026C1.70748 2.29806 2.17979 1.70313 2.79295 1.29546C3.40943 0.88447 4.14356 0.678977 4.99536 0.678977C5.84716 0.678977 6.57964 0.88447 7.19281 1.29546C7.80928 1.70644 8.28324 2.30303 8.61468 3.08523C8.94612 3.86411 9.11018 4.80871 9.10687 5.91903C9.10687 7.03599 8.94115 7.99053 8.60971 8.78267C8.28159 9.57481 7.81094 10.1797 7.19778 10.5973C6.58462 11.0149 5.85048 11.2237 4.99536 11.2237ZM4.99536 9.43892C5.5787 9.43892 6.04437 9.1456 6.39238 8.55895C6.74039 7.9723 6.91274 7.09233 6.90943 5.91903C6.90943 5.14678 6.82988 4.50379 6.67079 3.99006C6.51501 3.47633 6.29295 3.0902 6.0046 2.83168C5.71956 2.57315 5.38315 2.44389 4.99536 2.44389C4.41534 2.44389 3.95133 2.7339 3.60332 3.31392C3.25531 3.89394 3.07964 4.76231 3.07633 5.91903C3.07633 6.70123 3.15422 7.35417 3.30999 7.87784C3.46908 8.3982 3.69281 8.7893 3.98116 9.05114C4.26951 9.30966 4.60758 9.43892 4.99536 9.43892ZM13.5206 11.1392C12.8179 11.1392 12.1915 11.0099 11.6413 10.7514C11.0945 10.4929 10.6603 10.1366 10.3388 9.68253C10.0173 9.22846 9.84991 8.7081 9.83665 8.12145L11.9247 8.12145C11.9479 8.51586 12.1136 8.8357 12.4219 9.08097C12.7301 9.32623 13.0964 9.44886 13.5206 9.44886C13.8587 9.44886 14.157 9.37429 14.4155 9.22514C14.6773 9.07268 14.8812 8.86222 15.027 8.59375C15.1761 8.32197 15.2507 8.01042 15.2507 7.65909C15.2507 7.30114 15.1745 6.98627 15.022 6.71449C14.8729 6.44271 14.6657 6.23059 14.4006 6.07813C14.1354 5.92566 13.8322 5.84778 13.4908 5.84446C13.1925 5.84446 12.9025 5.90578 12.6207 6.02841C12.3423 6.15104 12.1252 6.31842 11.9695 6.53054L10.0554 6.1875L10.5376 0.818182L16.7621 0.818183L16.7621 2.57813L12.3125 2.57813L12.049 5.12855L12.1087 5.12855C12.2876 4.87666 12.5578 4.66785 12.919 4.50213C13.2803 4.33641 13.6847 4.25355 14.1321 4.25355C14.7453 4.25355 15.2921 4.39773 15.7727 4.68608C16.2533 4.97443 16.6328 5.3705 16.9112 5.87429C17.1896 6.37476 17.3272 6.95147 17.3239 7.6044C17.3272 8.29048 17.1681 8.90033 16.8466 9.43395C16.5284 9.96425 16.0826 10.3819 15.5092 10.6868C14.9392 10.9884 14.2763 11.1392 13.5206 11.1392Z" fill="#F9AF15"/>
</svg>
