<svg width="18" height="12" viewBox="0 0 18 12" fill="none" xmlns="http://www.w3.org/2000/svg">
<path d="M4.87818 11.2237C4.02306 11.2204 3.28727 11.0099 2.67079 10.5923C2.05763 10.1747 1.58533 9.56984 1.25389 8.7777C0.925761 7.98556 0.763356 7.03267 0.76667 5.91903C0.76667 4.80871 0.930733 3.86245 1.25886 3.08026C1.5903 2.29806 2.0626 1.70313 2.67576 1.29546C3.29224 0.88447 4.02638 0.678978 4.87818 0.678978C5.72998 0.678978 6.46246 0.88447 7.07562 1.29546C7.6921 1.70644 8.16606 2.30303 8.49749 3.08523C8.82893 3.86411 8.993 4.80871 8.98968 5.91903C8.98968 7.03599 8.82396 7.99053 8.49252 8.78267C8.1644 9.57481 7.69375 10.1797 7.08059 10.5973C6.46743 11.0149 5.73329 11.2237 4.87818 11.2237ZM4.87818 9.43892C5.46151 9.43892 5.92718 9.1456 6.27519 8.55895C6.6232 7.9723 6.79555 7.09233 6.79224 5.91903C6.79224 5.14678 6.71269 4.50379 6.5536 3.99006C6.39783 3.47633 6.17576 3.0902 5.88741 2.83168C5.60237 2.57315 5.26596 2.44389 4.87818 2.44389C4.29816 2.44389 3.83414 2.7339 3.48613 3.31392C3.13812 3.89394 2.96246 4.76231 2.95914 5.91903C2.95914 6.70123 3.03703 7.35417 3.19281 7.87784C3.3519 8.3982 3.57562 8.7893 3.86397 9.05114C4.15232 9.30966 4.49039 9.43892 4.87818 9.43892ZM13.5923 11.1392C13.0687 11.1359 12.5632 11.0481 12.076 10.8757C11.5921 10.7034 11.1579 10.4233 10.7734 10.0355C10.389 9.64773 10.084 9.134 9.85867 8.49432C9.6366 7.85464 9.52557 7.06913 9.52557 6.13778C9.52888 5.28267 9.62666 4.5187 9.81889 3.84588C10.0144 3.16974 10.2929 2.59635 10.6541 2.12571C11.0187 1.65507 11.4545 1.29711 11.9616 1.05185C12.4688 0.803268 13.0372 0.678978 13.6669 0.678978C14.3464 0.678978 14.9463 0.811554 15.4666 1.07671C15.987 1.33854 16.4046 1.69484 16.7195 2.1456C17.0376 2.59636 17.2299 3.1018 17.2962 3.66193L15.1733 3.66193C15.0904 3.30729 14.9164 3.02888 14.6513 2.82671C14.3861 2.62453 14.058 2.52344 13.6669 2.52344C13.004 2.52344 12.5002 2.81179 12.1555 3.3885C11.8142 3.9652 11.6402 4.74905 11.6335 5.74006L11.7031 5.74006C11.8556 5.43845 12.0611 5.18158 12.3196 4.96946C12.5814 4.75403 12.8781 4.58996 13.2095 4.47727C13.5443 4.36127 13.8973 4.30327 14.2685 4.30327C14.8717 4.30327 15.4086 4.44579 15.8793 4.73082C16.3499 5.01255 16.7211 5.40033 16.9929 5.89418C17.2647 6.38802 17.4006 6.95313 17.4006 7.58949C17.4006 8.27888 17.2398 8.89205 16.9183 9.42898C16.6001 9.96591 16.1544 10.3868 15.581 10.6918C15.0109 10.9934 14.348 11.1425 13.5923 11.1392ZM13.5824 9.44886C13.9138 9.44886 14.2105 9.36932 14.4723 9.21023C14.7341 9.05114 14.9396 8.8357 15.0888 8.56392C15.2379 8.29214 15.3125 7.98722 15.3125 7.64915C15.3125 7.31108 15.2379 7.00781 15.0888 6.73935C14.9429 6.47088 14.7408 6.2571 14.4822 6.09801C14.2237 5.93892 13.9287 5.85938 13.5973 5.85938C13.3487 5.85938 13.1184 5.90578 12.9063 5.99858C12.6974 6.09138 12.5135 6.22064 12.3544 6.38636C12.1986 6.55208 12.076 6.74432 11.9865 6.96307C11.897 7.1785 11.8523 7.40885 11.8523 7.65412C11.8523 7.98225 11.9268 8.2822 12.076 8.55398C12.2285 8.82576 12.4339 9.04285 12.6925 9.20526C12.9543 9.36766 13.2509 9.44886 13.5824 9.44886Z" fill="#F9AF15"/>
</svg>
