<svg width="108" height="53" viewBox="0 0 108 53" fill="none" xmlns="http://www.w3.org/2000/svg">
<path d="M21.609 1.09091V52H12.3867V10.0646H12.0884L0.181395 17.6712V9.21946L12.8341 1.09091H21.609ZM48.4526 52.9695C44.3593 52.9695 40.846 51.9337 37.9128 49.8622C34.9961 47.7741 32.7506 44.7663 31.1763 40.8388C29.6185 36.8946 28.8396 32.1468 28.8396 26.5952C28.8562 21.0436 29.6434 16.3205 31.2011 12.4261C32.7755 8.51515 35.021 5.5322 37.9376 3.47727C40.8709 1.42235 44.3759 0.394884 48.4526 0.394884C52.5293 0.394884 56.0342 1.42235 58.9675 3.47727C61.9007 5.5322 64.1462 8.51515 65.704 12.4261C67.2783 16.3371 68.0655 21.0601 68.0655 26.5952C68.0655 32.1634 67.2783 36.9195 65.704 40.8636C64.1462 44.7912 61.9007 47.7907 58.9675 49.8622C56.0508 51.9337 52.5458 52.9695 48.4526 52.9695ZM48.4526 45.1889C51.6344 45.1889 54.145 43.6229 55.9845 40.4908C57.8406 37.3421 58.7686 32.7102 58.7686 26.5952C58.7686 22.5516 58.346 19.1544 57.5009 16.4034C56.6557 13.6525 55.4625 11.581 53.9213 10.1889C52.3801 8.7803 50.5572 8.07599 48.4526 8.07599C45.2873 8.07599 42.7849 9.65033 40.9455 12.799C39.106 15.9311 38.1779 20.5298 38.1614 26.5952C38.1448 30.6553 38.5508 34.0691 39.3794 36.8366C40.2246 39.6042 41.4178 41.6922 42.959 43.1009C44.5001 44.4929 46.3313 45.1889 48.4526 45.1889ZM86.5382 43.8466V9.44318H94.3436V43.8466H86.5382ZM73.2392 30.5476V22.7422H107.643V30.5476H73.2392Z" fill="#F9AF15"/>
</svg>
