<svg width="131" height="57" viewBox="0 0 131 57" fill="none" xmlns="http://www.w3.org/2000/svg">
<path d="M25.2308 3.09091V54H16.0085V12.0646H15.7102L3.80327 19.6712V11.2195L16.456 3.09091H25.2308ZM52.0744 54.9695C47.9812 54.9695 44.4679 53.9337 41.5347 51.8622C38.618 49.7741 36.3725 46.7663 34.7982 42.8388C33.2404 38.8946 32.4615 34.1468 32.4615 28.5952C32.4781 23.0436 33.2652 18.3205 34.823 14.4261C36.3973 10.5151 38.6429 7.5322 41.5595 5.47727C44.4928 3.42235 47.9977 2.39488 52.0744 2.39488C56.1511 2.39488 59.6561 3.42235 62.5893 5.47727C65.5226 7.5322 67.7681 10.5151 69.3259 14.4261C70.9002 18.3371 71.6874 23.0601 71.6874 28.5952C71.6874 34.1634 70.9002 38.9195 69.3259 42.8636C67.7681 46.7912 65.5226 49.7907 62.5893 51.8622C59.6727 53.9337 56.1677 54.9695 52.0744 54.9695ZM52.0744 47.1889C55.2563 47.1889 57.7669 45.6229 59.6064 42.4908C61.4625 39.3421 62.3905 34.7102 62.3905 28.5952C62.3905 24.5516 61.9679 21.1544 61.1227 18.4034C60.2776 15.6525 59.0844 13.581 57.5432 12.1889C56.002 10.7803 54.1791 10.076 52.0744 10.076C48.9092 10.076 46.4068 11.6503 44.5673 14.799C42.7278 17.9311 41.7998 22.5298 41.7832 28.5952C41.7667 32.6553 42.1727 36.0691 43.0013 38.8366C43.8464 41.6042 45.0396 43.6922 46.5808 45.1009C48.122 46.4929 49.9532 47.1889 52.0744 47.1889ZM90.16 45.8466V11.4432H97.9654V45.8466H90.16ZM76.861 32.5476V24.7422H111.264V32.5476H76.861Z" fill="#F9AF15"/>
</svg>
