<svg width="244" height="53" viewBox="0 0 244 53" fill="none" xmlns="http://www.w3.org/2000/svg">
<path d="M22.1699 1.09091V52H12.9476V10.0646H12.6493L0.742323 17.6712V9.21946L13.395 1.09091H22.1699ZM47.8949 52.696C44.5805 52.696 41.6141 52.0746 38.9957 50.8317C36.3774 49.5722 34.2976 47.8487 32.7564 45.6612C31.2318 43.4737 30.4197 40.9714 30.3203 38.1541H39.2692C39.4349 40.2422 40.3381 41.9491 41.9787 43.2749C43.6193 44.584 45.5914 45.2386 47.8949 45.2386C49.7012 45.2386 51.3087 44.8243 52.7173 43.9957C54.1259 43.1671 55.2363 42.0154 56.0483 40.5405C56.8603 39.0656 57.258 37.3835 57.2415 35.4943C57.258 33.572 56.852 31.8651 56.0234 30.3736C55.1948 28.8821 54.0597 27.7138 52.6179 26.8686C51.1761 26.0069 49.5189 25.576 47.6463 25.576C46.1217 25.5594 44.6219 25.8411 43.147 26.4212C41.6721 27.0012 40.5038 27.7635 39.642 28.7081L31.3146 27.3409L33.9744 1.09091H63.5057V8.79688H41.6058L40.1392 22.2947H40.4375C41.3821 21.1844 42.7161 20.2647 44.4396 19.5355C46.1631 18.7898 48.0523 18.4169 50.1072 18.4169C53.1896 18.4169 55.9406 19.1461 58.3601 20.6044C60.7796 22.0462 62.6854 24.0348 64.0774 26.5703C65.4695 29.1058 66.1655 32.0059 66.1655 35.2706C66.1655 38.6347 65.3866 41.6342 63.8288 44.2692C62.2876 46.8875 60.1416 48.9508 57.3906 50.4588C54.6562 51.9503 51.491 52.696 47.8949 52.696ZM100.874 52.9695C96.7804 52.9695 93.2671 51.9337 90.3339 49.8622C87.4172 47.7741 85.1717 44.7663 83.5974 40.8388C82.0396 36.8946 81.2607 32.1468 81.2607 26.5952C81.2773 21.0436 82.0645 16.3205 83.6222 12.4261C85.1966 8.51515 87.4421 5.5322 90.3587 3.47727C93.292 1.42235 96.7969 0.394884 100.874 0.394884C104.95 0.394884 108.455 1.42235 111.389 3.47727C114.322 5.5322 116.567 8.51515 118.125 12.4261C119.699 16.3371 120.487 21.0601 120.487 26.5952C120.487 32.1634 119.699 36.9195 118.125 40.8636C116.567 44.7912 114.322 47.7907 111.389 49.8622C108.472 51.9337 104.967 52.9695 100.874 52.9695ZM100.874 45.1889C104.055 45.1889 106.566 43.6229 108.406 40.4908C110.262 37.3421 111.19 32.7102 111.19 26.5952C111.19 22.5516 110.767 19.1544 109.922 16.4034C109.077 13.6525 107.884 11.581 106.342 10.1889C104.801 8.7803 102.978 8.07599 100.874 8.07599C97.7084 8.07599 95.206 9.65033 93.3665 12.799C91.5271 15.9311 90.599 20.5298 90.5825 26.5952C90.5659 30.6553 90.9719 34.0691 91.8005 36.8366C92.6457 39.6042 93.8388 41.6922 95.38 43.1009C96.9212 44.4929 98.7524 45.1889 100.874 45.1889ZM142.663 52.9695C138.57 52.9695 135.057 51.9337 132.123 49.8622C129.207 47.7741 126.961 44.7663 125.387 40.8388C123.829 36.8946 123.05 32.1468 123.05 26.5952C123.067 21.0436 123.854 16.3205 125.412 12.4261C126.986 8.51515 129.232 5.5322 132.148 3.47727C135.081 1.42235 138.586 0.394884 142.663 0.394884C146.74 0.394884 150.245 1.42235 153.178 3.47727C156.111 5.5322 158.357 8.51515 159.915 12.4261C161.489 16.3371 162.276 21.0601 162.276 26.5952C162.276 32.1634 161.489 36.9195 159.915 40.8636C158.357 44.7912 156.111 47.7907 153.178 49.8622C150.261 51.9337 146.756 52.9695 142.663 52.9695ZM142.663 45.1889C145.845 45.1889 148.356 43.6229 150.195 40.4908C152.051 37.3421 152.979 32.7102 152.979 26.5952C152.979 22.5516 152.557 19.1544 151.711 16.4034C150.866 13.6525 149.673 11.581 148.132 10.1889C146.591 8.7803 144.768 8.07599 142.663 8.07599C139.498 8.07599 136.995 9.65033 135.156 12.799C133.317 15.9311 132.388 20.5298 132.372 26.5952C132.355 30.6553 132.761 34.0691 133.59 36.8366C134.435 39.6042 135.628 41.6922 137.169 43.1009C138.711 44.4929 140.542 45.1889 142.663 45.1889ZM184.453 52.9695C180.359 52.9695 176.846 51.9337 173.913 49.8622C170.996 47.7741 168.751 44.7663 167.176 40.8388C165.619 36.8946 164.84 32.1468 164.84 26.5952C164.856 21.0436 165.643 16.3205 167.201 12.4261C168.775 8.51515 171.021 5.5322 173.938 3.47727C176.871 1.42235 180.376 0.394884 184.453 0.394884C188.529 0.394884 192.034 1.42235 194.967 3.47727C197.901 5.5322 200.146 8.51515 201.704 12.4261C203.278 16.3371 204.065 21.0601 204.065 26.5952C204.065 32.1634 203.278 36.9195 201.704 40.8636C200.146 44.7912 197.901 47.7907 194.967 49.8622C192.051 51.9337 188.546 52.9695 184.453 52.9695ZM184.453 45.1889C187.634 45.1889 190.145 43.6229 191.985 40.4908C193.841 37.3421 194.769 32.7102 194.769 26.5952C194.769 22.5516 194.346 19.1544 193.501 16.4034C192.656 13.6525 191.462 11.581 189.921 10.1889C188.38 8.7803 186.557 8.07599 184.453 8.07599C181.287 8.07599 178.785 9.65033 176.945 12.799C175.106 15.9311 174.178 20.5298 174.161 26.5952C174.145 30.6553 174.551 34.0691 175.379 36.8366C176.225 39.6042 177.418 41.6922 178.959 43.1009C180.5 44.4929 182.331 45.1889 184.453 45.1889ZM222.538 43.8466V9.44318H230.344V43.8466H222.538ZM209.239 30.5476V22.7422H243.643V30.5476H209.239Z" fill="#F9AF15"/>
</svg>
