<svg width="132" height="55" viewBox="0 0 132 55" fill="none" xmlns="http://www.w3.org/2000/svg">
<path d="M19.1544 1.39488C21.5905 1.41146 23.9603 1.84233 26.2638 2.6875C28.5839 3.5161 30.6719 4.875 32.528 6.7642C34.384 8.63684 35.859 11.1475 36.9527 14.2962C38.0465 17.4448 38.5933 21.3393 38.5933 25.9794C38.6099 30.3544 38.1459 34.2654 37.2013 37.7124C36.2733 41.1428 34.9392 44.0428 33.1992 46.4126C31.4591 48.7824 29.3627 50.5888 26.9101 51.8317C24.4574 53.0746 21.6982 53.696 18.6324 53.696C15.4174 53.696 12.567 53.0663 10.0813 51.8068C7.61203 50.5473 5.61511 48.8239 4.09049 46.6364C2.56587 44.4489 1.62955 41.9465 1.28154 39.1293H10.3547C10.8187 41.151 11.7633 42.7585 13.1885 43.9517C14.6303 45.1283 16.4449 45.7166 18.6324 45.7166C22.1622 45.7166 24.88 44.1837 26.7858 41.1179C28.6916 38.0521 29.6445 33.7931 29.6445 28.3409H29.2965C28.4844 29.7992 27.4321 31.0587 26.1395 32.1193C24.8469 33.1634 23.3803 33.9671 21.7396 34.5305C20.1156 35.094 18.3921 35.3757 16.5692 35.3757C13.5862 35.3757 10.9016 34.6631 8.5152 33.2379C6.14541 31.8127 4.26449 29.8572 2.87245 27.3714C1.49697 24.8857 0.80095 22.0436 0.784378 18.8452C0.784378 15.5308 1.54669 12.5561 3.07131 9.92116C4.6125 7.26965 6.75857 5.18158 9.50952 3.65696C12.2605 2.11576 15.4754 1.36174 19.1544 1.39488ZM19.1793 8.85227C17.3895 8.85227 15.7737 9.29143 14.332 10.1697C12.9068 11.0315 11.7799 12.2081 10.9513 13.6996C10.1393 15.1745 9.73324 16.8234 9.73324 18.6463C9.74981 20.4526 10.1558 22.0933 10.9513 23.5682C11.7633 25.0431 12.8653 26.2114 14.2574 27.0732C15.666 27.9349 17.2735 28.3658 19.0798 28.3658C20.4222 28.3658 21.6733 28.1089 22.8334 27.5952C23.9934 27.0814 25.0043 26.3688 25.8661 25.4574C26.7444 24.5294 27.4238 23.477 27.9044 22.3004C28.4016 21.1238 28.6419 19.8809 28.6253 18.5717C28.6253 16.8317 28.211 15.2242 27.3824 13.7493C26.5704 12.2744 25.4518 11.0895 24.0266 10.1946C22.6179 9.29972 21.0022 8.85227 19.1793 8.85227ZM59.645 1.39488C62.0811 1.41146 64.4509 1.84233 66.7544 2.6875C69.0745 3.5161 71.1626 4.875 73.0186 6.7642C74.8747 8.63684 76.3496 11.1475 77.4433 14.2962C78.5371 17.4448 79.084 21.3393 79.084 25.9794C79.1005 30.3544 78.6365 34.2654 77.6919 37.7124C76.7639 41.1428 75.4298 44.0428 73.6898 46.4126C71.9497 48.7824 69.8534 50.5888 67.4007 51.8317C64.9481 53.0746 62.1888 53.696 59.123 53.696C55.9081 53.696 53.0577 53.0663 50.5719 51.8068C48.1027 50.5473 46.1057 48.8239 44.5811 46.6364C43.0565 44.4489 42.1202 41.9465 41.7722 39.1293H50.8453C51.3093 41.151 52.2539 42.7585 53.6791 43.9517C55.1209 45.1283 56.9355 45.7166 59.123 45.7166C62.6528 45.7166 65.3706 44.1837 67.2764 41.1179C69.1822 38.0521 70.1351 33.7931 70.1351 28.3409H69.7871C68.975 29.7992 67.9227 31.0587 66.6301 32.1193C65.3375 33.1634 63.8709 33.9671 62.2303 34.5305C60.6062 35.094 58.8827 35.3757 57.0598 35.3757C54.0768 35.3757 51.3922 34.6631 49.0058 33.2379C46.636 31.8127 44.7551 29.8572 43.3631 27.3714C41.9876 24.8857 41.2916 22.0436 41.275 18.8452C41.275 15.5308 42.0373 12.5561 43.5619 9.92116C45.1031 7.26965 47.2492 5.18158 50.0001 3.65696C52.7511 2.11576 55.9661 1.36174 59.645 1.39488ZM59.6699 8.85227C57.8801 8.85227 56.2643 9.29143 54.8226 10.1697C53.3974 11.0315 52.2705 12.2081 51.4419 13.6996C50.6299 15.1745 50.2239 16.8234 50.2239 18.6463C50.2404 20.4526 50.6465 22.0933 51.4419 23.5682C52.2539 25.0431 53.356 26.2114 54.748 27.0732C56.1566 27.9349 57.7641 28.3658 59.5705 28.3658C60.9128 28.3658 62.164 28.1089 63.324 27.5952C64.484 27.0814 65.4949 26.3688 66.3567 25.4574C67.235 24.5294 67.9144 23.477 68.395 22.3004C68.8922 21.1238 69.1325 19.8809 69.1159 18.5717C69.1159 16.8317 68.7016 15.2242 67.873 13.7493C67.061 12.2744 65.9424 11.0895 64.5172 10.1946C63.1086 9.29972 61.4928 8.85227 59.6699 8.85227ZM109.681 43.4545V40.7699C109.681 38.7978 110.095 36.9832 110.924 35.326C111.769 33.6688 112.996 32.3348 114.603 31.3239C116.21 30.313 118.158 29.8075 120.445 29.8075C122.798 29.8075 124.77 30.313 126.361 31.3239C127.952 32.3182 129.153 33.6439 129.965 35.3011C130.794 36.9583 131.208 38.7812 131.208 40.7699V43.4545C131.208 45.4266 130.794 47.2412 129.965 48.8984C129.137 50.5556 127.919 51.8897 126.311 52.9006C124.72 53.9115 122.765 54.4169 120.445 54.4169C118.125 54.4169 116.161 53.9115 114.553 52.9006C112.946 51.8897 111.728 50.5556 110.899 48.8984C110.087 47.2412 109.681 45.4266 109.681 43.4545ZM116.169 40.7699V43.4545C116.169 44.7637 116.484 45.9652 117.114 47.0589C117.743 48.1527 118.854 48.6996 120.445 48.6996C122.052 48.6996 123.154 48.161 123.751 47.0838C124.364 45.9901 124.67 44.7803 124.67 43.4545V40.7699C124.67 39.4441 124.38 38.2344 123.8 37.1406C123.22 36.0303 122.102 35.4751 120.445 35.4751C118.887 35.4751 117.785 36.0303 117.138 37.1406C116.492 38.2344 116.169 39.4441 116.169 40.7699ZM83.804 14.321V11.6364C83.804 9.64773 84.2266 7.82481 85.0717 6.16761C85.9169 4.51041 87.1432 3.18466 88.7507 2.19034C90.3582 1.17945 92.3054 0.674003 94.5923 0.674003C96.929 0.674003 98.8928 1.17945 100.484 2.19034C102.091 3.18466 103.301 4.51041 104.113 6.16761C104.925 7.82481 105.331 9.64773 105.331 11.6364V14.321C105.331 16.3097 104.917 18.1326 104.088 19.7898C103.276 21.4304 102.066 22.7479 100.459 23.7422C98.8513 24.7365 96.8958 25.2337 94.5923 25.2337C92.2557 25.2337 90.2836 24.7365 88.6761 23.7422C87.0852 22.7479 85.8755 21.4221 85.0469 19.7649C84.2183 18.1077 83.804 16.2931 83.804 14.321ZM90.3416 11.6364V14.321C90.3416 15.6468 90.6482 16.8565 91.2614 17.9503C91.8911 19.0275 93.0014 19.5661 94.5923 19.5661C96.1832 19.5661 97.277 19.0275 97.8736 17.9503C98.4867 16.8565 98.7933 15.6468 98.7933 14.321V11.6364C98.7933 10.3106 98.5033 9.10085 97.9233 8.0071C97.3433 6.89678 96.233 6.34162 94.5923 6.34162C93.018 6.34162 91.916 6.89678 91.2862 8.0071C90.6565 9.11742 90.3416 10.3272 90.3416 11.6364ZM86.6378 53L121.638 2.09091H127.852L92.8523 53H86.6378Z" fill="#F9AF15"/>
</svg>
