<svg width="30" height="30" viewBox="0 0 30 30" fill="none" xmlns="http://www.w3.org/2000/svg">
    <path d="M7.0725 1.7775L6.36 0H14.64L13.9275 1.7775C13.8736 1.91669 13.7789 2.03632 13.6557 2.12065C13.5326 2.20499 13.3868 2.25008 13.2375 2.25H7.7625C7.61324 2.25008 7.46745 2.20499 7.3443 2.12065C7.22114 2.03632 7.12639 1.91669 7.0725 1.7775Z" fill="#F9AF15" />
    <path d="M10.4175 12.9075L14.265 11.37C14.8685 10.0087 15.7992 8.81779 16.9743 7.90314C18.1493 6.9885 19.5323 6.37852 21 6.1275V3.75C21 2.75544 20.6049 1.80161 19.9016 1.09835C19.1984 0.395088 18.2446 0 17.25 0H16.26L15.3225 2.3325C15.1579 2.75109 14.8708 3.11029 14.4989 3.36318C14.1269 3.61607 13.6873 3.75088 13.2375 3.75H7.7625C7.31271 3.75088 6.87311 3.61607 6.50113 3.36318C6.12916 3.11029 5.84212 2.75109 5.6775 2.3325L4.74 0H3.75C2.75544 0 1.80161 0.395088 1.09835 1.09835C0.395088 1.80161 0 2.75544 0 3.75V26.25C0 27.2446 0.395088 28.1984 1.09835 28.9016C1.80161 29.6049 2.75544 30 3.75 30H17.25C18.2446 30 19.1984 29.6049 19.9016 28.9016C20.6049 28.1984 21 27.2446 21 26.25V23.8725C19.5323 23.6215 18.1493 23.0115 16.9743 22.0969C15.7992 21.1822 14.8685 19.9913 14.265 18.63L10.4175 17.0925C9.99782 16.9266 9.63772 16.6384 9.38396 16.2653C9.1302 15.8921 8.99451 15.4513 8.99451 15C8.99451 14.5487 9.1302 14.1079 9.38396 13.7347C9.63772 13.3616 9.99782 13.0734 10.4175 12.9075ZM12.75 25.5C12.9489 25.5 13.1397 25.579 13.2803 25.7197C13.421 25.8603 13.5 26.0511 13.5 26.25C13.5 26.4489 13.421 26.6397 13.2803 26.7803C13.1397 26.921 12.9489 27 12.75 27H8.25C8.05109 27 7.86032 26.921 7.71967 26.7803C7.57902 26.6397 7.5 26.4489 7.5 26.25C7.5 26.0511 7.57902 25.8603 7.71967 25.7197C7.86032 25.579 8.05109 25.5 8.25 25.5H12.75Z" fill="#F9AF15" />
    <path d="M22.5 15C23.3284 15 24 14.3284 24 13.5C24 12.6716 23.3284 12 22.5 12C21.6716 12 21 12.6716 21 13.5C21 14.3284 21.6716 15 22.5 15Z" fill="#F9AF15" />
    <path d="M22.5 7.5C20.9465 7.50827 19.4333 7.99514 18.1664 8.8943C16.8995 9.79347 15.9405 11.0612 15.42 12.525L10.9725 14.3025C10.8326 14.3578 10.7126 14.4539 10.628 14.5782C10.5434 14.7026 10.4982 14.8496 10.4982 15C10.4982 15.1504 10.5434 15.2974 10.628 15.4218C10.7126 15.5461 10.8326 15.6422 10.9725 15.6975L15.42 17.475C15.8741 18.774 16.6769 19.9231 17.7404 20.7963C18.8039 21.6696 20.0872 22.2334 21.4497 22.4261C22.8123 22.6188 24.2016 22.4329 25.4656 21.8887C26.7295 21.3446 27.8194 20.4632 28.6159 19.341C29.4124 18.2188 29.8848 16.8991 29.9814 15.5264C30.0779 14.1537 29.795 12.7809 29.1635 11.5582C28.532 10.3356 27.5763 9.31023 26.401 8.59444C25.2257 7.87866 23.8761 7.50003 22.5 7.5ZM25.5 19.5C25.3011 19.5 25.1103 19.421 24.9697 19.2803C24.829 19.1397 24.75 18.9489 24.75 18.75C24.75 18.1533 24.5129 17.581 24.091 17.159C23.669 16.7371 23.0967 16.5 22.5 16.5C21.9033 16.5 21.331 16.7371 20.909 17.159C20.4871 17.581 20.25 18.1533 20.25 18.75C20.25 18.9489 20.171 19.1397 20.0303 19.2803C19.8897 19.421 19.6989 19.5 19.5 19.5C19.3011 19.5 19.1103 19.421 18.9697 19.2803C18.829 19.1397 18.75 18.9489 18.75 18.75C18.751 18.1353 18.9026 17.5302 19.1916 16.9876C19.4805 16.445 19.898 15.9814 20.4075 15.6375C20.1194 15.3612 19.8905 15.0293 19.7345 14.6618C19.5785 14.2944 19.4987 13.8992 19.5 13.5C19.5 12.7044 19.8161 11.9413 20.3787 11.3787C20.9413 10.8161 21.7044 10.5 22.5 10.5C23.2956 10.5 24.0587 10.8161 24.6213 11.3787C25.1839 11.9413 25.5 12.7044 25.5 13.5C25.5013 13.8992 25.4215 14.2944 25.2655 14.6618C25.1095 15.0293 24.8806 15.3612 24.5925 15.6375C25.102 15.9814 25.5195 16.445 25.8084 16.9876C26.0974 17.5302 26.249 18.1353 26.25 18.75C26.25 18.9489 26.171 19.1397 26.0303 19.2803C25.8897 19.421 25.6989 19.5 25.5 19.5Z" fill="#F9AF15" />
</svg>