<svg width="30" height="30" viewBox="0 0 30 30" fill="none" xmlns="http://www.w3.org/2000/svg">
    <path d="M14.7651 18.4385V20.1963C14.7651 20.2798 14.7742 20.3612 14.7908 20.4397L17.2629 18.4385H14.7651Z" fill="#F9AF15" />
    <path d="M25.8978 14.3369L28.4895 8.11695C28.6503 7.731 28.3667 7.30566 27.9486 7.30566H21.9726V15.5088C21.9726 16.5274 21.4498 17.4259 20.6587 17.951L16.4375 21.3682H27.9486C28.3667 21.3682 28.6503 20.9428 28.4895 20.5569L25.8978 14.3369Z" fill="#F9AF15" />
    <path d="M19.043 16.6797C19.2654 16.6797 19.4725 16.6166 19.6496 16.5091C19.6709 16.4941 19.6925 16.4802 19.7146 16.4672C20.0168 16.2553 20.2148 15.905 20.2148 15.5078V3.78906C20.2148 3.14184 19.6901 2.61719 19.0429 2.61719H6.73828V16.6797H19.043V16.6797ZM12.0856 12.6878C11.8607 12.6878 11.6357 12.602 11.4642 12.4303L9.80824 10.7744C9.465 10.4311 9.465 9.87467 9.80824 9.53143C10.1514 9.18818 10.7079 9.18818 11.0512 9.53143L12.0856 10.5658L15.6676 6.98389C16.0108 6.64064 16.5673 6.64064 16.9106 6.98389C17.2538 7.32713 17.2538 7.88359 16.9106 8.22684L12.7071 12.4303C12.5354 12.602 12.3105 12.6878 12.0856 12.6878Z" fill="#F9AF15" />
    <path d="M4.98047 1.75781C4.98047 0.786973 4.1935 0 3.22266 0C2.25182 0 1.46484 0.786973 1.46484 1.75781V28.2422C1.46484 29.213 2.25182 30 3.22266 30C4.1935 30 4.98047 29.213 4.98047 28.2422V1.75781Z" fill="#F9AF15" />
</svg>