<svg width="31" height="30" viewBox="0 0 31 30" fill="none" xmlns="http://www.w3.org/2000/svg">
    <g clip-path="url(#clip0_1_483)">
        <path d="M27.9914 14.9608V21.8091H18.7409V14.9608C16.6939 13.606 15.3411 11.414 15.0366 8.99619H14.9703V8.11557H11.9895L10.8144 5.76562H-0.0585938V28.7731H29.9994V13.0932C29.4424 13.8135 28.7672 14.4476 27.9914 14.9608ZM3.46598 21.7226V19.9614H10.452V21.7226H3.46598ZM10.452 23.4866V25.2479H3.46598V23.4866H10.452Z" fill="#F9AF15" />
        <path d="M20.5022 18.0645H26.2304V20.0479H20.5022V18.0645Z" fill="#F9AF15" />
        <path d="M20.0609 13.7074L20.5021 13.9615V16.3034H22.4856V11.6808L19.9212 9.11667L21.1667 7.87141L23.3662 10.0709L25.5655 7.87141L26.811 9.11667L24.2469 11.6808V16.3034H26.2301V13.9615L26.6713 13.7074C28.7245 12.5247 30 10.3206 30 7.95511C30 6.19019 29.3146 4.52892 28.07 3.27747C26.8261 2.02648 25.1699 1.33184 23.4064 1.32152C23.3931 1.32129 23.3798 1.32129 23.3665 1.32129C21.6119 1.32129 19.9549 2.00836 18.6971 3.25913C17.43 4.5186 16.7322 6.18652 16.7322 7.95534C16.7324 10.3206 18.0077 12.5247 20.0609 13.7074Z" fill="#F9AF15" />
    </g>
    <defs>
        <clipPath id="clip0_1_483">
            <rect width="30.0587" height="30" fill="white" />
        </clipPath>
    </defs>
</svg>