<svg width="25" height="30" viewBox="0 0 25 30" fill="none" xmlns="http://www.w3.org/2000/svg">
<path d="M18.6394 0H6.20315C5.40903 3.15244 3.11656 5.74248 0 6.95609C0.284686 22.0375 8.31582 28.002 11.8669 29.8964C12.1366 30.0444 12.4662 30.0296 12.7359 29.852C16.317 27.6024 24.4081 20.9867 24.8276 6.94129C21.726 5.74248 19.4186 3.15244 18.6394 0ZM12.4213 2.66404C13.8147 2.66404 14.9235 3.87765 14.8486 5.23927L14.2343 16.0878C14.1744 17.0202 13.3802 17.8046 12.4213 17.8046C11.4623 17.8046 10.6682 17.035 10.6083 16.0878L9.99397 5.22447C9.90407 3.87765 11.0278 2.66404 12.4213 2.66404ZM12.4213 24.8051C11.0278 24.8051 9.964 23.7099 9.964 22.2743C9.964 20.8239 11.0128 19.7435 12.4213 19.7435C13.8447 19.7435 14.8786 20.8091 14.8786 22.2743C14.8786 23.7395 13.8297 24.8051 12.4213 24.8051Z" fill="#F9AF15"/>
</svg>
