<svg width="740" height="334" viewBox="0 0 740 334" fill="none" xmlns="http://www.w3.org/2000/svg">
<path d="M709.03 196.217C702.484 182.867 688.635 173.548 672.773 173.548C667.485 173.548 662.45 174.555 657.666 176.57C650.364 167.25 639.033 161.457 626.192 161.457C615.365 161.457 605.294 165.739 597.992 173.044C624.43 192.439 642.558 221.91 646.839 255.662H731.943C736.726 249.365 739.748 241.557 739.748 232.992C740 214.353 726.655 199.24 709.03 196.217Z" fill="#3C3C3C"/>
<path d="M314.732 54.6591C349.982 54.6591 383.218 68.5128 407.641 93.1976C418.972 89.9231 430.806 88.4118 442.64 88.4118C468.322 88.4118 492.745 95.7164 513.392 109.066C513.392 107.555 513.644 106.296 513.644 104.784C513.644 77.8326 494.004 55.6667 468.322 51.3846C458.754 31.7376 438.611 18.1357 415.195 18.1357C407.39 18.1357 400.088 19.6471 393.29 22.4178C382.715 8.5641 366.097 0 347.465 0C318.006 0 293.582 21.6621 289.302 49.8733C271.929 51.3846 256.57 60.2006 246.75 73.5505C267.145 61.2081 290.561 54.6591 314.732 54.6591Z" fill="#3C3C3C"/>
<path d="M117.836 190.172C136.72 169.77 161.395 156.168 188.084 150.626C191.861 136.773 198.156 123.927 205.961 112.088C199.918 110.073 193.372 108.813 186.574 108.813C178.516 108.813 170.711 110.325 163.913 113.347C152.834 99.2418 135.461 90.4258 116.325 90.4258C85.8591 90.4258 60.6805 112.844 56.1483 142.062C24.6751 144.581 0 170.777 0 202.767C0 213.598 2.76965 223.925 7.80538 232.741H91.1467C97.1895 217.124 106.254 202.767 117.836 190.172Z" fill="#3C3C3C"/>
<path d="M606.298 334.001C619.642 316.872 627.448 295.21 627.448 271.785C627.448 221.156 590.687 179.343 542.344 171.283C524.467 134.256 486.448 108.815 442.637 108.815C428.033 108.815 413.933 111.586 401.344 116.875C380.949 91.4351 349.727 75.0625 314.729 75.0625C259.336 75.0625 213.511 115.616 205.202 168.764C148.298 173.55 103.48 221.408 103.48 279.593C103.48 299.492 108.768 317.88 117.832 334.001H606.298Z" fill="white"/>
<path d="M297.611 227.704C297.611 238.535 288.799 247.099 278.223 247.099C267.397 247.099 258.836 238.283 258.836 227.704C258.836 217.125 267.648 208.309 278.223 208.309C289.05 208.309 297.611 216.873 297.611 227.704Z" fill="#414042"/>
<path d="M293.834 219.14C293.834 224.681 289.302 229.467 283.511 229.467C277.971 229.467 273.188 224.933 273.188 219.14C273.188 213.598 277.72 208.812 283.511 208.812C289.302 209.064 293.834 213.598 293.834 219.14Z" fill="white"/>
<path d="M252.289 196.975L307.43 232.743C307.43 232.743 316.243 192.441 314.984 192.441C313.725 192.441 295.093 176.32 276.461 176.32" fill="white"/>
<path d="M453.241 247.105C463.946 246.823 472.395 237.914 472.113 227.205C471.832 216.497 462.926 208.044 452.222 208.326C441.517 208.608 433.068 217.517 433.35 228.225C433.631 238.934 442.537 247.386 453.241 247.105Z" fill="#414042"/>
<path d="M437.102 219.14C437.102 224.681 441.634 229.467 447.425 229.467C452.964 229.467 457.748 224.933 457.748 219.14C457.748 213.598 453.216 208.812 447.425 208.812C441.634 209.064 437.102 213.598 437.102 219.14Z" fill="white"/>
<path d="M478.646 196.975L423.505 232.743C423.505 232.743 414.692 192.441 415.951 192.441C417.21 192.441 435.842 176.32 454.475 176.32" fill="white"/>
<path d="M391.275 290.425C389.764 290.425 388.505 289.166 388.505 287.654C388.505 275.06 378.182 264.733 365.592 264.733C353.003 264.733 342.68 275.06 342.68 287.654C342.68 289.166 341.421 290.425 339.91 290.425C338.4 290.425 337.141 289.166 337.141 287.654C337.141 271.786 349.982 259.191 365.592 259.191C381.455 259.191 394.044 272.038 394.044 287.654C394.044 289.166 392.785 290.425 391.275 290.425Z" fill="#414042"/>
<path opacity="0.1" d="M627.45 271.783C627.45 261.708 625.939 252.136 623.169 242.816C562.992 280.599 377.426 369.011 109.273 243.32C105.497 254.655 103.23 266.746 103.23 279.34C103.23 299.239 108.518 317.626 117.582 333.747H606.048C619.644 316.871 627.45 295.209 627.45 271.783Z" fill="#414042"/>
<path d="M613.857 17C579.866 17 552.421 44.4555 552.421 78.46C552.421 89.7949 555.442 100.626 560.982 109.694L550.91 138.409L576.592 127.326C586.916 135.134 599.757 139.92 613.857 139.92C647.848 139.92 675.293 112.465 675.293 78.46C675.293 44.4555 647.848 17 613.857 17Z" fill="white"/>
<path d="M589.159 87.2386V84.2386H590.105C590.577 84.2386 590.958 84.1818 591.247 84.0682C591.537 83.9489 591.767 83.7756 591.938 83.5483C592.114 83.3153 592.262 83.0256 592.381 82.679L592.594 82.108L586.253 69.5455H590.071L594.179 78.1364L597.614 69.5455H601.381L595.364 83.5739C595.074 84.2216 594.73 84.8239 594.333 85.3807C593.941 85.9375 593.438 86.3864 592.824 86.7273C592.21 87.0682 591.426 87.2386 590.472 87.2386H589.159ZM600.668 87V73.9091H612.114V87H608.646V76.7642H604.094V87H600.668ZM619.247 87.2557C617.906 87.2557 616.752 86.9716 615.787 86.4034C614.826 85.8295 614.088 85.0341 613.571 84.017C613.059 83 612.804 81.8295 612.804 80.5057C612.804 79.1648 613.062 77.9886 613.579 76.9773C614.102 75.9602 614.843 75.1676 615.804 74.5994C616.764 74.0256 617.906 73.7386 619.23 73.7386C620.372 73.7386 621.372 73.946 622.23 74.3608C623.088 74.7756 623.767 75.358 624.267 76.108C624.767 76.858 625.042 77.7386 625.093 78.75H621.667C621.571 78.0966 621.315 77.571 620.9 77.1733C620.491 76.7699 619.954 76.5682 619.289 76.5682C618.727 76.5682 618.235 76.7216 617.815 77.0284C617.4 77.3295 617.076 77.7699 616.843 78.3494C616.61 78.929 616.494 79.6307 616.494 80.4545C616.494 81.2898 616.608 82 616.835 82.5852C617.068 83.1705 617.394 83.6165 617.815 83.9233C618.235 84.2301 618.727 84.3835 619.289 84.3835C619.704 84.3835 620.076 84.2983 620.406 84.1278C620.741 83.9574 621.017 83.7102 621.233 83.3864C621.454 83.0568 621.599 82.6619 621.667 82.2017H625.093C625.037 83.2017 624.764 84.0824 624.275 84.8438C623.792 85.5994 623.125 86.1903 622.272 86.6165C621.42 87.0426 620.412 87.2557 619.247 87.2557ZM631.735 87.2216C631.172 87.2216 630.689 87.0227 630.286 86.625C629.888 86.2216 629.689 85.7386 629.689 85.1761C629.689 84.6193 629.888 84.142 630.286 83.7443C630.689 83.3466 631.172 83.1477 631.735 83.1477C632.28 83.1477 632.757 83.3466 633.167 83.7443C633.576 84.142 633.78 84.6193 633.78 85.1761C633.78 85.5511 633.684 85.8949 633.49 86.2074C633.303 86.5142 633.056 86.7614 632.749 86.9489C632.442 87.1307 632.104 87.2216 631.735 87.2216ZM637.203 87.2216C636.641 87.2216 636.158 87.0227 635.754 86.625C635.357 86.2216 635.158 85.7386 635.158 85.1761C635.158 84.6193 635.357 84.142 635.754 83.7443C636.158 83.3466 636.641 83.1477 637.203 83.1477C637.749 83.1477 638.226 83.3466 638.635 83.7443C639.044 84.142 639.249 84.6193 639.249 85.1761C639.249 85.5511 639.152 85.8949 638.959 86.2074C638.771 86.5142 638.524 86.7614 638.217 86.9489C637.911 87.1307 637.573 87.2216 637.203 87.2216ZM642.672 87.2216C642.109 87.2216 641.626 87.0227 641.223 86.625C640.825 86.2216 640.626 85.7386 640.626 85.1761C640.626 84.6193 640.825 84.142 641.223 83.7443C641.626 83.3466 642.109 83.1477 642.672 83.1477C643.217 83.1477 643.694 83.3466 644.103 83.7443C644.513 84.142 644.717 84.6193 644.717 85.1761C644.717 85.5511 644.621 85.8949 644.427 86.2074C644.24 86.5142 643.993 86.7614 643.686 86.9489C643.379 87.1307 643.041 87.2216 642.672 87.2216Z" fill="#F9AF15"/>
<path opacity="0.1" d="M613.857 139.798C647.848 139.798 675.293 112.343 675.293 78.338C675.293 64.9881 671.012 52.6457 663.962 42.5703C651.876 69.7739 623.173 110.327 560.73 110.579L550.91 138.287L576.592 127.204C586.916 135.012 600.008 139.798 613.857 139.798Z" fill="#414042"/>
</svg>
