<svg width="184" height="66" viewBox="0 0 184 66" fill="none" xmlns="http://www.w3.org/2000/svg">
<path d="M19.0208 1.39488C21.4569 1.41146 23.8267 1.84233 26.1302 2.6875C28.4503 3.5161 30.5383 4.875 32.3944 6.7642C34.2505 8.63684 35.7254 11.1475 36.8191 14.2962C37.9129 17.4448 38.4597 21.3393 38.4597 25.9794C38.4763 30.3544 38.0123 34.2654 37.0677 37.7124C36.1397 41.1428 34.8056 44.0428 33.0656 46.4126C31.3255 48.7824 29.2291 50.5888 26.7765 51.8317C24.3238 53.0746 21.5646 53.696 18.4988 53.696C15.2838 53.696 12.4335 53.0663 9.94766 51.8068C7.47844 50.5473 5.48152 48.8239 3.9569 46.6364C2.43227 44.4489 1.49596 41.9465 1.14795 39.1293H10.2211C10.6851 41.151 11.6297 42.7585 13.0549 43.9517C14.4967 45.1283 16.3113 45.7166 18.4988 45.7166C22.0286 45.7166 24.7464 44.1837 26.6522 41.1179C28.558 38.0521 29.5109 33.7931 29.5109 28.3409H29.1629C28.3508 29.7992 27.2985 31.0587 26.0059 32.1193C24.7133 33.1634 23.2467 33.9671 21.606 34.5305C19.982 35.094 18.2585 35.3757 16.4356 35.3757C13.4526 35.3757 10.768 34.6631 8.38161 33.2379C6.01182 31.8127 4.1309 29.8572 2.73886 27.3714C1.36338 24.8857 0.667359 22.0436 0.650787 18.8452C0.650787 15.5308 1.4131 12.5561 2.93772 9.92116C4.47891 7.26965 6.62498 5.18158 9.37593 3.65696C12.1269 2.11576 15.3418 1.36174 19.0208 1.39488ZM19.0457 8.85227C17.2559 8.85227 15.6401 9.29143 14.1984 10.1697C12.7732 11.0315 11.6463 12.2081 10.8177 13.6996C10.0057 15.1745 9.59965 16.8234 9.59965 18.6463C9.61622 20.4526 10.0222 22.0933 10.8177 23.5682C11.6297 25.0431 12.7318 26.2114 14.1238 27.0732C15.5324 27.9349 17.1399 28.3658 18.9462 28.3658C20.2886 28.3658 21.5398 28.1089 22.6998 27.5952C23.8598 27.0814 24.8707 26.3688 25.7325 25.4574C26.6108 24.5294 27.2902 23.477 27.7708 22.3004C28.268 21.1238 28.5083 19.8809 28.4917 18.5717C28.4917 16.8317 28.0774 15.2242 27.2488 13.7493C26.4368 12.2744 25.3182 11.0895 23.893 10.1946C22.4844 9.29972 20.8686 8.85227 19.0457 8.85227ZM59.5114 1.39488C61.9475 1.41146 64.3173 1.84233 66.6208 2.6875C68.9409 3.5161 71.029 4.875 72.885 6.7642C74.7411 8.63684 76.216 11.1475 77.3097 14.2962C78.4035 17.4448 78.9504 21.3393 78.9504 25.9794C78.9669 30.3544 78.5029 34.2654 77.5583 37.7124C76.6303 41.1428 75.2962 44.0428 73.5562 46.4126C71.8161 48.7824 69.7198 50.5888 67.2671 51.8317C64.8145 53.0746 62.0552 53.696 58.9894 53.696C55.7745 53.696 52.9241 53.0663 50.4383 51.8068C47.9691 50.5473 45.9721 48.8239 44.4475 46.6364C42.9229 44.4489 41.9866 41.9465 41.6386 39.1293H50.7117C51.1757 41.151 52.1203 42.7585 53.5455 43.9517C54.9873 45.1283 56.8019 45.7166 58.9894 45.7166C62.5193 45.7166 65.2371 44.1837 67.1428 41.1179C69.0486 38.0521 70.0015 33.7931 70.0015 28.3409H69.6535C68.8415 29.7992 67.7891 31.0587 66.4965 32.1193C65.2039 33.1634 63.7373 33.9671 62.0967 34.5305C60.4726 35.094 58.7491 35.3757 56.9262 35.3757C53.9433 35.3757 51.2586 34.6631 48.8722 33.2379C46.5024 31.8127 44.6215 29.8572 43.2295 27.3714C41.854 24.8857 41.158 22.0436 41.1414 18.8452C41.1414 15.5308 41.9037 12.5561 43.4283 9.92116C44.9695 7.26965 47.1156 5.18158 49.8666 3.65696C52.6175 2.11576 55.8325 1.36174 59.5114 1.39488ZM59.5363 8.85227C57.7465 8.85227 56.1308 9.29143 54.689 10.1697C53.2638 11.0315 52.1369 12.2081 51.3083 13.6996C50.4963 15.1745 50.0903 16.8234 50.0903 18.6463C50.1068 20.4526 50.5129 22.0933 51.3083 23.5682C52.1203 25.0431 53.2224 26.2114 54.6144 27.0732C56.023 27.9349 57.6305 28.3658 59.4369 28.3658C60.7792 28.3658 62.0304 28.1089 63.1904 27.5952C64.3505 27.0814 65.3613 26.3688 66.2231 25.4574C67.1014 24.5294 67.7809 23.477 68.2614 22.3004C68.7586 21.1238 68.9989 19.8809 68.9823 18.5717C68.9823 16.8317 68.568 15.2242 67.7394 13.7493C66.9274 12.2744 65.8088 11.0895 64.3836 10.1946C62.975 9.29972 61.3592 8.85227 59.5363 8.85227ZM91.0097 46.0398L90.6865 48.7741C90.4545 50.8622 90.0402 52.9834 89.4436 55.1378C88.8636 57.3087 88.2505 59.3056 87.6042 61.1286C86.9579 62.9515 86.4358 64.3849 86.0381 65.429H79.9728C80.2048 64.4181 80.5196 63.0426 80.9174 61.3026C81.3317 59.5625 81.7294 57.607 82.1105 55.4361C82.4917 53.2652 82.7486 51.0611 82.8811 48.8239L83.0552 46.0398H91.0097ZM112.273 53.696C108.577 53.696 105.296 53.0746 102.429 51.8317C99.5786 50.5888 97.3414 48.8902 95.7173 46.7358C94.1098 44.5649 93.3144 42.1039 93.3309 39.353C93.3144 37.2152 93.7784 35.2514 94.723 33.4616C95.6676 31.6719 96.9436 30.1804 98.5511 28.9872C100.175 27.7775 101.982 27.0069 103.97 26.6754V26.3274C101.352 25.7474 99.2306 24.4134 97.6065 22.3253C95.999 20.2206 95.2036 17.7928 95.2201 15.0419C95.2036 12.4235 95.9327 10.0869 97.4076 8.03196C98.8825 5.97703 100.904 4.36127 103.473 3.18466C106.042 1.99148 108.975 1.39488 112.273 1.39488C115.537 1.39488 118.446 1.99148 120.998 3.18466C123.566 4.36127 125.588 5.97703 127.063 8.03196C128.555 10.0869 129.3 12.4235 129.3 15.0419C129.3 17.7928 128.48 20.2206 126.839 22.3253C125.215 24.4134 123.119 25.7474 120.55 26.3274V26.6754C122.539 27.0069 124.329 27.7775 125.92 28.9872C127.527 30.1804 128.803 31.6719 129.748 33.4616C130.709 35.2514 131.19 37.2152 131.19 39.353C131.19 42.1039 130.378 44.5649 128.754 46.7358C127.129 48.8902 124.892 50.5888 122.042 51.8317C119.208 53.0746 115.952 53.696 112.273 53.696ZM112.273 46.5866C114.178 46.5866 115.836 46.2635 117.244 45.6172C118.653 44.9543 119.747 44.0263 120.526 42.8331C121.304 41.6399 121.702 40.2644 121.719 38.7067C121.702 37.0826 121.28 35.6491 120.451 34.4062C119.639 33.1468 118.52 32.1607 117.095 31.4482C115.687 30.7356 114.079 30.3793 112.273 30.3793C110.45 30.3793 108.826 30.7356 107.401 31.4482C105.975 32.1607 104.848 33.1468 104.02 34.4062C103.208 35.6491 102.81 37.0826 102.827 38.7067C102.81 40.2644 103.191 41.6399 103.97 42.8331C104.749 44.0097 105.843 44.9295 107.251 45.5923C108.677 46.2552 110.35 46.5866 112.273 46.5866ZM112.273 23.3942C113.83 23.3942 115.206 23.0793 116.399 22.4496C117.609 21.8198 118.562 20.9415 119.258 19.8146C119.954 18.6877 120.31 17.3868 120.327 15.9119C120.31 14.4536 119.962 13.1776 119.283 12.0838C118.603 10.9735 117.659 10.12 116.449 9.52344C115.239 8.91027 113.847 8.60369 112.273 8.60369C110.665 8.60369 109.248 8.91027 108.022 9.52344C106.812 10.12 105.868 10.9735 105.188 12.0838C104.525 13.1776 104.202 14.4536 104.219 15.9119C104.202 17.3868 104.534 18.6877 105.213 19.8146C105.909 20.925 106.862 21.8033 108.072 22.4496C109.298 23.0793 110.698 23.3942 112.273 23.3942ZM161.681 43.4545V40.7699C161.681 38.7978 162.095 36.9832 162.924 35.326C163.769 33.6688 164.996 32.3348 166.603 31.3239C168.21 30.313 170.158 29.8075 172.445 29.8075C174.798 29.8075 176.77 30.313 178.361 31.3239C179.952 32.3182 181.153 33.6439 181.965 35.3011C182.794 36.9583 183.208 38.7812 183.208 40.7699V43.4545C183.208 45.4266 182.794 47.2412 181.965 48.8984C181.137 50.5556 179.919 51.8897 178.311 52.9006C176.72 53.9115 174.765 54.4169 172.445 54.4169C170.125 54.4169 168.161 53.9115 166.553 52.9006C164.946 51.8897 163.728 50.5556 162.899 48.8984C162.087 47.2412 161.681 45.4266 161.681 43.4545ZM168.169 40.7699V43.4545C168.169 44.7637 168.484 45.9652 169.114 47.0589C169.743 48.1527 170.854 48.6996 172.445 48.6996C174.052 48.6996 175.154 48.161 175.751 47.0838C176.364 45.9901 176.67 44.7803 176.67 43.4545V40.7699C176.67 39.4441 176.38 38.2344 175.8 37.1406C175.22 36.0303 174.102 35.4751 172.445 35.4751C170.887 35.4751 169.785 36.0303 169.138 37.1406C168.492 38.2344 168.169 39.4441 168.169 40.7699ZM135.804 14.321V11.6364C135.804 9.64773 136.227 7.82481 137.072 6.16761C137.917 4.51041 139.143 3.18466 140.751 2.19034C142.358 1.17945 144.305 0.674003 146.592 0.674003C148.929 0.674003 150.893 1.17945 152.484 2.19034C154.091 3.18466 155.301 4.51041 156.113 6.16761C156.925 7.82481 157.331 9.64773 157.331 11.6364V14.321C157.331 16.3097 156.917 18.1326 156.088 19.7898C155.276 21.4304 154.066 22.7479 152.459 23.7422C150.851 24.7365 148.896 25.2337 146.592 25.2337C144.256 25.2337 142.284 24.7365 140.676 23.7422C139.085 22.7479 137.875 21.4221 137.047 19.7649C136.218 18.1077 135.804 16.2931 135.804 14.321ZM142.342 11.6364V14.321C142.342 15.6468 142.648 16.8565 143.261 17.9503C143.891 19.0275 145.001 19.5661 146.592 19.5661C148.183 19.5661 149.277 19.0275 149.874 17.9503C150.487 16.8565 150.793 15.6468 150.793 14.321V11.6364C150.793 10.3106 150.503 9.10085 149.923 8.0071C149.343 6.89678 148.233 6.34162 146.592 6.34162C145.018 6.34162 143.916 6.89678 143.286 8.0071C142.656 9.11742 142.342 10.3272 142.342 11.6364ZM138.638 53L173.638 2.09091H179.852L144.852 53H138.638Z" fill="#F9AF15"/>
</svg>
