<svg width="35" height="36" viewBox="0 0 35 36" fill="none" xmlns="http://www.w3.org/2000/svg">
<path d="M17.5 0.5C7.8279 0.5 0 8.32688 0 18C0 27.6722 7.82688 35.5 17.5 35.5C27.1721 35.5 35 27.6731 35 18C35 8.32776 27.1731 0.5 17.5 0.5ZM17.4593 21.6628C16.9049 21.6628 16.3789 21.5394 15.9062 21.3201L12.9914 24.235C12.5146 24.7118 11.7415 24.7119 11.2647 24.235C10.7879 23.7583 10.7879 22.9852 11.2647 22.5084L14.1515 19.6216C13.899 19.1214 13.7559 18.5569 13.7559 17.9593C13.7559 16.3298 14.8142 14.9437 16.2792 14.4498V8.15112C16.2792 7.47683 16.8258 6.93022 17.5001 6.93022C18.1744 6.93022 18.721 7.47689 18.721 8.15112V14.4773C20.1437 14.9944 21.1628 16.36 21.1628 17.9593C21.1628 20.0014 19.5014 21.6628 17.4593 21.6628Z" fill="#F9AF15"/>
<path d="M17.4589 16.6992C16.7632 16.6992 16.1973 17.2652 16.1973 17.9609C16.1973 18.6566 16.7632 19.2225 17.4589 19.2225C18.1546 19.2225 18.7205 18.6566 18.7205 17.9609C18.7205 17.2652 18.1546 16.6992 17.4589 16.6992Z" fill="#F9AF15"/>
</svg>
