<svg width="46" height="46" viewBox="0 0 46 46" fill="none" xmlns="http://www.w3.org/2000/svg">
<path d="M6.81287 24.0962L8.38074 25.6645L13.0333 21.0106L8.99928 26.2832L10.4569 27.7386L14.7598 23.4344L11.0297 28.3143L11.7693 29.0541L15.3837 25.4385L13.1139 30.3991L13.7056 30.9883L18.0085 26.6841L14.2784 31.5639L15.4241 32.7099L19.5629 29.7347L16.005 33.291L17.4142 34.7033L20.6252 31.4913L18.6082 35.8977L19.4742 36.764L24.4844 33.1592L20.1815 37.4634L21.1873 38.4695L29.2821 30.3722L14.9077 15.9989L6.81287 24.0962ZM43.9578 1.31889C42.2608 -0.378581 39.3859 -0.499636 37.8127 1.31889C36.6643 2.66395 34.6662 5.56928 33.5098 6.89013C31.991 8.64764 30.3471 10.2929 28.591 11.8131C27.331 13.0681 25.6252 13.7727 23.847 13.7727C22.0689 13.7727 20.3631 13.0681 19.1031 11.8131L16.3035 14.6027L30.6752 28.9814L33.4667 26.1891C32.212 24.9287 31.5076 23.2224 31.5076 21.4437C31.5076 19.665 32.212 17.9587 33.4667 16.6983C34.9859 14.942 36.6297 13.2977 38.3855 11.7781C39.7086 10.6133 42.6239 8.6145 43.9578 7.47389C45.7757 5.89748 45.6547 3.01636 43.9578 1.31889ZM42.5378 6.13421C42.2022 6.4696 41.7748 6.69794 41.3095 6.79037C40.8442 6.8828 40.362 6.83516 39.9238 6.65348C39.4856 6.4718 39.111 6.16424 38.8475 5.76967C38.584 5.37511 38.4434 4.91125 38.4434 4.43674C38.4434 3.96223 38.584 3.49837 38.8475 3.10381C39.111 2.70924 39.4856 2.40168 39.9238 2.22C40.362 2.03832 40.8442 1.99068 41.3095 2.08311C41.7748 2.17554 42.2022 2.40388 42.5378 2.73927C42.7611 2.96194 42.9382 3.2265 43.0591 3.51778C43.18 3.80907 43.2422 4.12135 43.2422 4.43674C43.2422 4.75213 43.18 5.06441 43.0591 5.3557C42.9382 5.64698 42.7611 5.91154 42.5378 6.13421V6.13421Z" fill="#F9AF15"/>
<path d="M41.9865 10.8959C40.3487 12.0553 37.7132 14.2935 34.4268 17.8472L40.1631 15.2996C41.9136 19.4584 42.1295 24.1041 40.7723 28.4074C39.4151 32.7107 36.5732 36.3914 32.7539 38.7925C28.9346 41.1937 24.3865 42.1589 19.9215 41.5159C15.4565 40.8729 11.3653 38.6636 8.37826 35.2823C5.39118 31.9009 3.70266 27.5678 3.61412 23.0563C3.52558 18.5448 5.04279 14.1487 7.8949 10.6527C10.747 7.15674 14.7484 4.78847 19.1847 3.97068C23.621 3.1529 28.2034 3.93883 32.114 6.18817L32.3641 5.90302C32.902 5.30581 33.6415 4.28894 34.3838 3.30436C29.6489 0.432793 24.0263 -0.603837 18.5791 0.390483C13.1319 1.3848 8.23767 4.34115 4.82191 8.70051C1.40615 13.0599 -0.294401 18.5201 0.0418058 24.0487C0.378013 29.5773 2.72768 34.791 6.6465 38.7041C10.5653 42.6171 15.7817 44.9583 21.3092 45.2848C26.8367 45.6113 32.2923 43.9006 36.6443 40.4761C40.9963 37.0516 43.9431 32.1507 44.9275 26.7001C45.9119 21.2496 44.8656 15.6271 41.9865 10.8959Z" fill="#F9AF15"/>
</svg>
