<svg width="110" height="47" viewBox="0 0 110 47" fill="none" xmlns="http://www.w3.org/2000/svg">
<path d="M6.8125 24.9321L8.38037 26.5004L13.0329 21.8465L8.99892 27.1192L10.4565 28.5745L14.7594 24.2703L11.0294 29.1502L11.7689 29.89L15.3834 26.2745L13.1136 31.2351L13.7052 31.8242L18.0081 27.52L14.2781 32.3999L15.4237 33.5459L19.5626 30.5706L16.0046 34.1269L17.4138 35.5393L20.6248 32.3272L18.6079 36.7337L19.4738 37.5999L24.484 33.9951L20.1811 38.2993L21.1869 39.3054L29.2818 31.2082L14.9074 16.8348L6.8125 24.9321ZM43.9574 2.15482C42.2604 0.457357 39.3856 0.336301 37.8123 2.15482C36.664 3.49989 34.6658 6.40522 33.5094 7.72607C31.9907 9.48358 30.3468 11.1289 28.5906 12.649C27.3306 13.904 25.6248 14.6087 23.8467 14.6087C22.0685 14.6087 20.3627 13.904 19.1027 12.649L16.3031 15.4387L30.6748 29.8174L33.4664 27.025C32.2117 25.7646 31.5073 24.0583 31.5073 22.2796C31.5073 20.5009 32.2117 18.7947 33.4664 17.5343C34.9855 15.778 36.6294 14.1336 38.3851 12.614C39.7083 11.4492 42.6235 9.45044 43.9574 8.30983C45.7754 6.73341 45.6544 3.85229 43.9574 2.15482ZM42.5374 6.97015C42.2019 7.30554 41.7744 7.53388 41.3091 7.62631C40.8439 7.71873 40.3616 7.6711 39.9234 7.48942C39.4852 7.30774 39.1106 7.00018 38.8471 6.60561C38.5836 6.21104 38.443 5.74719 38.443 5.27268C38.443 4.79817 38.5836 4.33431 38.8471 3.93974C39.1106 3.54518 39.4852 3.23761 39.9234 3.05594C40.3616 2.87426 40.8439 2.82662 41.3091 2.91905C41.7744 3.01148 42.2019 3.23982 42.5374 3.57521C42.7607 3.79788 42.9379 4.06244 43.0588 4.35372C43.1796 4.64501 43.2419 4.95729 43.2419 5.27268C43.2419 5.58806 43.1796 5.90035 43.0588 6.19163C42.9379 6.48292 42.7607 6.74748 42.5374 6.97015Z" fill="#F9AF15"/>
<path d="M41.9865 11.7328C40.3487 12.8923 37.7132 15.1304 34.4268 18.6841L40.1631 16.1365C41.9136 20.2953 42.1295 24.941 40.7723 29.2443C39.4151 33.5476 36.5732 37.2283 32.7539 39.6295C28.9346 42.0306 24.3865 42.9958 19.9215 42.3528C15.4565 41.7098 11.3653 39.5005 8.37826 36.1192C5.39118 32.7379 3.70266 28.4047 3.61412 23.8932C3.52558 19.3817 5.04279 14.9856 7.8949 11.4896C10.747 7.99366 14.7484 5.62539 19.1847 4.80761C23.621 3.98982 28.2034 4.77575 32.114 7.02509L32.3641 6.73994C32.902 6.14273 33.6415 5.12586 34.3838 4.14128C29.6489 1.26971 24.0263 0.233085 18.5791 1.2274C13.1319 2.22172 8.23767 5.17807 4.82191 9.53743C1.40615 13.8968 -0.294401 19.357 0.0418058 24.8856C0.378013 30.4142 2.72768 35.6279 6.6465 39.541C10.5653 43.4541 15.7817 45.7952 21.3092 46.1217C26.8367 46.4482 32.2923 44.7375 36.6443 41.313C40.9963 37.8885 43.9431 32.9876 44.9275 27.5371C45.9119 22.0865 44.8656 16.464 41.9865 11.7328Z" fill="#F9AF15"/>
<path d="M60.5039 28.7191V6.58203H77.2906V12.4142H67.2057V14.604H77.0594V20.455H67.2111V28.7191H60.5039Z" fill="white"/>
<path d="M79.1562 28.7191V6.58203H85.858V28.7191H79.1562Z" fill="white"/>
<path d="M102.044 28.7191L97.9967 21.948L93.9493 28.7191H86.0508L93.4491 17.3694L86.5483 6.58203H94.4146L97.9967 12.8877L101.514 6.58203H109.448L102.547 17.3425L109.945 28.7271L102.044 28.7191Z" fill="white"/>
<path d="M60.2891 40.255V31.418H63.839C65.6139 31.418 66.609 32.6366 66.609 34.0812C66.609 35.5258 65.587 36.7444 63.839 36.7444H61.389V40.255H60.2891ZM65.4687 34.0677C65.4687 33.0751 64.7533 32.3837 63.7072 32.3837H61.389V35.7652H63.7072C64.7533 35.7652 65.4687 35.0738 65.4687 34.0812V34.0677Z" fill="white"/>
<path d="M67.6641 40.255V31.418H73.4542V32.3972H68.764V35.246H73.36V36.2279H68.764V39.2758H73.4542V40.255H67.6641Z" fill="white"/>
<path d="M82.3536 40.255V32.9917L79.347 40.255H78.8978L75.9046 32.9917V40.255H74.8047V31.418H76.3699L79.1103 38.0706L81.8668 31.418H83.4428V40.255H82.3536Z" fill="white"/>
<path d="M84.7656 35.8427C84.7656 33.2333 86.5271 31.2695 89.1519 31.2695C91.7767 31.2695 93.5355 33.2306 93.5355 35.8427C93.5355 38.4549 91.7606 40.416 89.1519 40.416C86.5433 40.416 84.7656 38.4522 84.7656 35.8427ZM92.3952 35.8427C92.3952 33.7767 91.1232 32.2514 89.1519 32.2514C87.1806 32.2514 85.9059 33.7767 85.9059 35.8427C85.9059 37.9088 87.1645 39.4341 89.1519 39.4341C91.1393 39.4341 92.3952 37.898 92.3952 35.8427Z" fill="white"/>
<path d="M101.115 40.255V36.201H95.9593V40.255H94.8594V31.418H95.9593V35.2218H101.115V31.418H102.215V40.255H101.115Z" fill="white"/>
<path d="M106.075 40.255V32.3972H103.281V31.418H109.988V32.3972H107.175V40.255H106.075Z" fill="white"/>
</svg>
