<svg width="17" height="17" viewBox="0 0 17 17" fill="none" xmlns="http://www.w3.org/2000/svg">
<path d="M17 15.1111V13.5566C17 12.7843 16.5298 12.0896 15.8126 11.8028L13.8915 11.0344C12.9794 10.6695 11.9399 11.0647 11.5005 11.9434L11.3333 12.2778C11.3333 12.2778 8.97222 11.8056 7.08333 9.91667C5.19444 8.02778 4.72222 5.66667 4.72222 5.66667L5.05657 5.49949C5.93525 5.06015 6.33047 4.02063 5.96562 3.10851L5.19717 1.18737C4.91032 0.470239 4.21575 0 3.44338 0H1.88889C0.845684 0 0 0.845684 0 1.88889C0 10.2346 6.76543 17 15.1111 17C16.1543 17 17 16.1543 17 15.1111Z" fill="#C1C1C1"/>
</svg>
