<svg width="17" height="18" viewBox="0 0 17 18" fill="none" xmlns="http://www.w3.org/2000/svg">
<path d="M8.49561 0.5C3.79773 0.5 -0.00439453 4.30163 -0.00439453 9C-0.00439453 13.6979 3.79723 17.5 8.49561 17.5C13.1935 17.5 16.9956 13.6984 16.9956 9C16.9956 4.30206 13.194 0.5 8.49561 0.5ZM8.47585 10.7791C8.20654 10.7791 7.95107 10.7192 7.72147 10.6126L6.30569 12.0284C6.07413 12.26 5.69864 12.26 5.46705 12.0284C5.23546 11.7969 5.23546 11.4214 5.46705 11.1898L6.86918 9.78764C6.74653 9.54466 6.67704 9.27047 6.67704 8.98021C6.67704 8.18875 7.19105 7.51552 7.90263 7.2756V4.21626C7.90263 3.88874 8.16816 3.62325 8.49564 3.62325C8.82315 3.62325 9.08865 3.88878 9.08865 4.21626V7.28898C9.7797 7.54016 10.2747 8.20342 10.2747 8.98021C10.2747 9.97212 9.46773 10.7791 8.47585 10.7791Z" fill="#C1C1C1"/>
<path d="M8.47608 8.36768C8.13817 8.36768 7.86328 8.64256 7.86328 8.98047C7.86328 9.31838 8.13817 9.59327 8.47608 9.59327C8.81399 9.59327 9.08887 9.31838 9.08887 8.98047C9.08887 8.64256 8.81399 8.36768 8.47608 8.36768Z" fill="#C1C1C1"/>
</svg>
