<svg width="110" height="47" viewBox="0 0 110 47" fill="none" xmlns="http://www.w3.org/2000/svg">
<path d="M6.81274 24.9341L8.38062 26.5024L13.0331 21.8485L8.99916 27.1211L10.4568 28.5765L14.7597 24.2723L11.0296 29.1522L11.7692 29.8919L15.3836 26.2764L13.1138 31.237L13.7055 31.8261L18.0084 27.522L14.2783 32.4018L15.4239 33.5478L19.5628 30.5725L16.0048 34.1289L17.414 35.5412L20.6251 32.3292L18.6081 36.7356L19.4741 37.6018L24.4843 33.9971L20.1814 38.3013L21.1872 39.3074L29.282 31.2101L14.9076 16.8368L6.81274 24.9341ZM43.9576 2.15678C42.2607 0.45931 39.3858 0.338254 37.8125 2.15678C36.6642 3.50184 34.666 6.40717 33.5096 7.72802C31.9909 9.48554 30.347 11.1308 28.5909 12.6509C27.3308 13.906 25.6251 14.6106 23.8469 14.6106C22.0687 14.6106 20.363 13.906 19.1029 12.6509L16.3034 15.4406L30.6751 29.8193L33.4666 27.027C32.2119 25.7666 31.5075 24.0603 31.5075 22.2816C31.5075 20.5029 32.2119 18.7966 33.4666 17.5362C34.9858 15.7799 36.6296 14.1356 38.3854 12.616C39.7085 11.4512 42.6237 9.45239 43.9576 8.31178C45.7756 6.73537 45.6546 3.85425 43.9576 2.15678ZM42.5377 6.9721C42.2021 7.30749 41.7747 7.53583 41.3094 7.62826C40.8441 7.72069 40.3619 7.67305 39.9237 7.49137C39.4854 7.30969 39.1109 7.00213 38.8474 6.60756C38.5839 6.213 38.4432 5.74914 38.4432 5.27463C38.4432 4.80012 38.5839 4.33626 38.8474 3.9417C39.1109 3.54713 39.4854 3.23957 39.9237 3.05789C40.3619 2.87621 40.8441 2.82858 41.3094 2.921C41.7747 3.01343 42.2021 3.24177 42.5377 3.57716C42.761 3.79983 42.9381 4.06439 43.059 4.35567C43.1799 4.64696 43.2421 4.95924 43.2421 5.27463C43.2421 5.59002 43.1799 5.9023 43.059 6.19359C42.9381 6.48487 42.761 6.74943 42.5377 6.9721Z" fill="#F9AF15"/>
<path d="M41.9865 11.7338C40.3487 12.8932 37.7132 15.1314 34.4268 18.6851L40.1631 16.1375C41.9136 20.2963 42.1295 24.942 40.7723 29.2453C39.4151 33.5486 36.5732 37.2293 32.7539 39.6304C28.9346 42.0316 24.3865 42.9968 19.9215 42.3538C15.4565 41.7108 11.3653 39.5015 8.37826 36.1201C5.39118 32.7388 3.70266 28.4057 3.61412 23.8942C3.52558 19.3827 5.04279 14.9866 7.8949 11.4906C10.747 7.99464 14.7484 5.62637 19.1847 4.80858C23.621 3.99079 28.2034 4.77672 32.114 7.02607L32.3641 6.74091C32.902 6.14371 33.6415 5.12684 34.3838 4.14226C29.6489 1.27069 24.0263 0.234062 18.5791 1.22838C13.1319 2.2227 8.23767 5.17905 4.82191 9.53841C1.40615 13.8978 -0.294401 19.358 0.0418058 24.8866C0.378013 30.4152 2.72768 35.6289 6.6465 39.542C10.5653 43.455 15.7817 45.7962 21.3092 46.1227C26.8367 46.4492 32.2923 44.7385 36.6443 41.314C40.9963 37.8895 43.9431 32.9886 44.9275 27.538C45.9119 22.0875 44.8656 16.465 41.9865 11.7338Z" fill="#F9AF15"/>
<path d="M60.5032 28.72V6.58301H77.2899V12.4152H67.205V14.605H77.0586V20.456H67.2103V28.72H60.5032Z" fill="#2B2A29"/>
<path d="M79.1536 28.72V6.58301H85.8553V28.72H79.1536Z" fill="#2B2A29"/>
<path d="M102.045 28.72L97.9977 21.949L93.9503 28.72H86.0518L93.4501 17.3704L86.5493 6.58301H94.4155L97.9977 12.8887L101.515 6.58301H109.449L102.548 17.3435L109.946 28.7281L102.045 28.72Z" fill="#2B2A29"/>
<path d="M60.2883 40.255V31.418H63.8382C65.6132 31.418 66.6082 32.6366 66.6082 34.0812C66.6082 35.5258 65.5863 36.7444 63.8382 36.7444H61.3883V40.255H60.2883ZM65.468 34.0677C65.468 33.0751 64.7526 32.3837 63.7065 32.3837H61.3883V35.7652H63.7065C64.7526 35.7652 65.468 35.0738 65.468 34.0812V34.0677Z" fill="#2B2A29"/>
<path d="M67.6646 40.255V31.418H73.4547V32.3972H68.7645V35.246H73.3605V36.2279H68.7645V39.2758H73.4547V40.255H67.6646Z" fill="#2B2A29"/>
<path d="M82.3543 40.255V32.9917L79.3477 40.255H78.8986L75.9054 32.9917V40.255H74.8054V31.418H76.3706L79.111 38.0706L81.8676 31.418H83.4435V40.255H82.3543Z" fill="#2B2A29"/>
<path d="M84.7634 35.8442C84.7634 33.2348 86.5249 31.271 89.1497 31.271C91.7745 31.271 93.5333 33.2321 93.5333 35.8442C93.5333 38.4563 91.7584 40.4174 89.1497 40.4174C86.5411 40.4174 84.7634 38.4536 84.7634 35.8442ZM92.393 35.8442C92.393 33.7782 91.121 32.2529 89.1497 32.2529C87.1784 32.2529 85.9037 33.7782 85.9037 35.8442C85.9037 37.9102 87.1623 39.4355 89.1497 39.4355C91.1371 39.4355 92.393 37.8995 92.393 35.8442Z" fill="#2B2A29"/>
<path d="M101.112 40.255V36.201H95.9566V40.255H94.8567V31.418H95.9566V35.2218H101.112V31.418H102.212V40.255H101.112Z" fill="#2B2A29"/>
<path d="M106.074 40.255V32.3972H103.28V31.418H109.987V32.3972H107.174V40.255H106.074Z" fill="#2B2A29"/>
</svg>
