<svg width="50" height="50" viewBox="0 0 50 50" fill="none" xmlns="http://www.w3.org/2000/svg">
<rect x="0.0380859" width="49.9616" height="50" rx="10" fill="#F9AF15"/>
<path fill-rule="evenodd" clip-rule="evenodd" d="M25.0112 33.0183V34.2642C25.0112 35.2633 24.5136 36.1259 23.649 36.6254C23.233 36.8657 22.7687 36.9998 22.2873 37C21.8055 37.0003 21.3414 36.866 20.9251 36.6254L15.3895 33.427C14.5248 32.9273 14.0273 32.065 14.0273 31.0658V14.7265C14.0273 13.223 15.2495 12 16.7517 12H28.9431C30.4454 12 31.6676 13.2229 31.6676 14.7265V18.1708C31.6676 18.6648 31.2668 19.066 30.7731 19.066C30.2792 19.066 29.8787 18.6649 29.8787 18.1708V14.7265C29.8787 14.2102 29.4589 13.7901 28.9431 13.7901H18.2603L23.649 16.9042C24.5133 17.4038 25.0112 18.2661 25.0112 19.2649V31.228H28.9431C29.4589 31.228 29.8787 30.8082 29.8787 30.2918V27.2725C29.8787 26.7781 30.279 26.3772 30.7731 26.3772C31.267 26.3772 31.6676 26.7782 31.6676 27.2725V30.2918C31.6676 31.7954 30.4454 33.0183 28.9431 33.0183H25.0112ZM33.2999 23.4042L32.3147 24.3901C31.9655 24.7396 31.9655 25.3063 32.3147 25.656C32.4829 25.8243 32.7095 25.9179 32.9472 25.9179C33.1852 25.9179 33.4116 25.8246 33.5799 25.656L36.0916 23.1419C36.4408 22.7924 36.4409 22.226 36.0916 21.8765L33.5799 19.3628C33.2306 19.0132 32.6643 19.0133 32.3148 19.3627C31.9656 19.712 31.9657 20.2789 32.3148 20.6282L33.2999 21.6139H26.7005C26.2063 21.6139 25.8061 22.0146 25.8061 22.5092C25.8061 23.0037 26.2063 23.4042 26.7005 23.4042H33.2999V23.4042Z" fill="white"/>
</svg>
