<svg width="84" height="26" viewBox="0 0 84 26" fill="none" xmlns="http://www.w3.org/2000/svg">
<path d="M6.45703 3.20638H13.332C13.957 3.20638 15.832 2.99805 16.6654 5.91471C17.2904 7.78971 18.1237 10.7064 19.3737 15.0814H19.7904C21.0404 10.498 22.082 7.37305 22.4987 5.91471C23.332 2.99805 25.4154 3.20638 26.2487 3.20638H32.707V23.2064H26.0404V11.3314H25.6237L22.082 23.2064H17.082L13.5404 11.3314H12.9154V23.2064H6.45703M35.4154 3.20638H42.082V15.0814H42.707L47.082 5.28971C47.9154 3.41471 49.7904 3.20638 49.7904 3.20638H56.0404V23.2064H49.3737V11.3314H48.957L44.582 21.123C43.7487 22.998 41.6654 23.2064 41.6654 23.2064H35.4154M64.9987 17.1647V23.2064H58.7487V12.7897H79.1654C78.332 15.2897 75.4154 17.1647 72.082 17.1647" fill="#0F754E"/>
<path d="M79.582 11.5404C80.4154 7.79036 77.9154 3.20703 72.4987 3.20703H58.332C58.7487 7.58203 62.4987 11.5404 66.457 11.5404" fill="url(#paint0_linear_410_532848)"/>
<defs>
<linearGradient id="paint0_linear_410_532848" x1="77.082" y1="0.498698" x2="60.4154" y2="0.498698" gradientUnits="userSpaceOnUse">
<stop stop-color="#1F5CD7"/>
<stop offset="1" stop-color="#02AEFF"/>
</linearGradient>
</defs>
</svg>
