<svg width="20" height="25" viewBox="0 0 20 25" fill="none" xmlns="http://www.w3.org/2000/svg">
<path d="M2.5263 7.12962C2.05308 3.34385 5.00497 0 8.8202 0H10.7336C12.5547 0 14.1794 0.761117 15.3296 1.96838C13.5235 2.03152 12.0787 3.51557 12.0787 5.33708C12.0787 7.19871 13.5878 8.70786 15.4494 8.70786C15.9847 8.70786 16.4909 8.58309 16.9403 8.36104C16.993 9.25883 17.3885 10.112 18.0594 10.7351L18.1088 10.7809C19.9215 12.4643 20.2733 15.2021 18.9451 17.2891C18.004 18.7676 16.373 19.6629 14.6206 19.6629H5.38368C3.35196 19.6629 1.49881 18.5021 0.6121 16.6742L0.495976 16.4347C-0.455317 14.4736 -0.0102658 12.1208 1.59162 10.6426C2.36466 9.92928 2.74593 8.8867 2.61546 7.84293L2.5263 7.12962Z" fill="#161616"/>
<path d="M6.15744 21.5162C6.52976 21.237 7.05796 21.3124 7.33721 21.6848L7.67429 22.1342C8.85407 23.7073 11.2136 23.7073 12.3934 22.1342L12.7305 21.6848C13.0097 21.3124 13.5379 21.237 13.9103 21.5162C14.2826 21.7955 14.358 22.3237 14.0788 22.696L13.7417 23.1455C11.8878 25.6174 8.17991 25.6174 6.32598 23.1455L5.9889 22.696C5.70966 22.3237 5.78511 21.7955 6.15744 21.5162Z" fill="#161616"/>
<path d="M17.9006 5.33703C17.9006 6.57812 16.8946 7.58423 15.6534 7.58423C14.4123 7.58423 13.4062 6.57812 13.4062 5.33703C13.4062 4.09594 14.4123 3.08984 15.6534 3.08984C16.8946 3.08984 17.9006 4.09594 17.9006 5.33703Z" fill="#F9AF15"/>
</svg>
