<svg width="25" height="25" viewBox="0 0 25 25" fill="none" xmlns="http://www.w3.org/2000/svg">
<path d="M15.8135 2.05939C16.265 2.15136 16.7081 2.27678 17.1429 2.43564C17.26 2.47745 17.377 2.49417 17.4857 2.49417C17.8954 2.49417 18.2801 2.24333 18.4306 1.83363C18.6229 1.31524 18.3553 0.738315 17.8369 0.546007C17.3102 0.3537 16.7667 0.194837 16.2148 0.0861411C15.6714 -0.0225545 15.1446 0.328616 15.0275 0.872094C14.9189 1.41557 15.27 1.95069 15.8135 2.05939Z" fill="#F9AF15"/>
<path d="M9.43062 1.87449C9.58112 2.27583 9.96573 2.52667 10.3671 2.52667C10.4841 2.52667 10.6012 2.50994 10.7182 2.45978C11.2784 2.25075 11.8554 2.09188 12.449 1.99155C12.9925 1.89958 13.3687 1.38118 13.2768 0.837702C13.1848 0.294224 12.6664 -0.0820303 12.1229 0.00994297C11.4039 0.127 10.6932 0.319308 10.0159 0.578505C9.49751 0.779174 9.23831 1.3561 9.43062 1.87449Z" fill="#F9AF15"/>
<path d="M20.0264 4.14707C20.3609 4.43971 20.6786 4.7658 20.9713 5.10861C21.1719 5.34272 21.4478 5.45978 21.7321 5.45978C21.9579 5.45978 22.192 5.38453 22.3843 5.2173C22.8024 4.85777 22.8609 4.22232 22.5014 3.80426C22.1502 3.3862 21.7572 2.99322 21.3475 2.63369C20.9295 2.2658 20.294 2.3076 19.9345 2.72566C19.5666 3.15209 19.6084 3.77918 20.0264 4.14707Z" fill="#F9AF15"/>
<path d="M22.6349 8.01984C22.7854 8.4379 22.9025 8.87268 22.9861 9.31583C23.078 9.79242 23.4961 10.1269 23.9727 10.1269C24.0312 10.1269 24.0981 10.1185 24.165 10.1101C24.7085 10.0098 25.068 9.48305 24.9593 8.93957C24.859 8.40446 24.7168 7.8777 24.5329 7.3593C24.3489 6.83255 23.7804 6.55663 23.2536 6.74058C22.7352 6.92452 22.4593 7.50145 22.6349 8.01984Z" fill="#F9AF15"/>
<path d="M24.1727 11.8563C23.6292 11.756 23.1025 12.1239 23.0105 12.6674C22.9101 13.2192 22.7596 13.7627 22.5673 14.2811C22.375 14.7995 22.6342 15.3764 23.1526 15.5771C23.2697 15.6189 23.3867 15.644 23.5038 15.644C23.9135 15.644 24.2897 15.3931 24.4402 14.9918C24.6827 14.3563 24.8583 13.6875 24.9837 13.0186C25.0841 12.4751 24.7162 11.9567 24.1727 11.8563Z" fill="#F9AF15"/>
<path d="M23.4289 17.1922L19.8587 15.1269C19.2901 14.8008 18.6296 14.7089 17.9941 14.8845C17.3587 15.0517 16.8235 15.4614 16.4975 16.0299L16.3553 16.2724C16.1379 16.6403 15.8369 16.8661 15.4189 16.9497C15.0008 17.0333 14.6329 16.9497 14.2901 16.6988C13.1948 15.8711 12.1162 14.9346 11.0961 13.9146C10.0761 12.8945 9.1396 11.8159 8.31184 10.7122C8.05264 10.3694 7.96903 10.0015 8.061 9.58345C8.14461 9.16539 8.37037 8.85603 8.73826 8.647L8.98073 8.50486C10.1597 7.8276 10.561 6.31422 9.88374 5.14366L7.81016 1.56506C7.1998 0.503187 5.92053 0.0600434 4.77505 0.511548L4.73324 0.528271C2.96067 1.22225 1.75665 1.72392 1.2299 2.25068C-0.250036 3.73061 -0.400538 6.27242 0.811837 9.39951C1.92388 12.2674 4.06435 15.3694 6.84863 18.1537C9.63291 20.938 12.7349 23.0784 15.6028 24.1905C16.9991 24.734 18.2868 25.0015 19.4072 25.0015C20.7951 25.0015 21.9322 24.5918 22.76 23.7724C23.2868 23.2457 23.7884 22.0416 24.4824 20.2691L24.4991 20.2273C24.9423 19.0818 24.4908 17.8025 23.4289 17.1922Z" fill="#161616"/>
</svg>
