<svg width="30" height="30" viewBox="0 0 30 30" fill="none" xmlns="http://www.w3.org/2000/svg">
<g clip-path="url(#clip0_410_533671)">
<path d="M18.5604 20.2953C19.726 19.2922 20.4653 17.8069 20.4653 16.1521V15.864C20.4653 12.8503 18.0135 10.3984 14.9998 10.3984C11.986 10.3984 9.53419 12.8503 9.53419 15.864V16.1521C9.53419 17.8069 10.2735 19.2922 11.4391 20.2953C7.67559 21.4511 4.93164 24.9594 4.93164 29.0969C4.93164 29.5735 5.31801 29.9598 5.79461 29.9598H24.2049C24.6815 29.9598 25.0679 29.5734 25.0679 29.0968C25.0679 24.9594 22.3239 21.4511 18.5604 20.2953Z" fill="#F9AF15"/>
<path d="M19.6018 3.38645C19.5156 3.12114 19.3064 2.91383 19.0404 2.82999L16.9654 2.17614L15.7023 0.404903C15.5404 0.177852 15.2786 0.0429688 14.9997 0.0429688C14.7207 0.0429688 14.459 0.177852 14.297 0.404903L13.034 2.17625L10.9591 2.8301C10.693 2.91401 10.484 3.12126 10.3977 3.38657C10.3115 3.65177 10.3589 3.94245 10.5248 4.16663L11.8191 5.91519L11.7998 8.09066C11.7973 8.36957 11.9298 8.63248 12.1555 8.79654C12.3049 8.90506 12.4828 8.96131 12.6628 8.96131C12.7548 8.96131 12.8473 8.9466 12.9368 8.91666L14.9997 8.22601L17.0627 8.9166C17.3273 9.00537 17.6182 8.96049 17.8439 8.79642C18.0696 8.63248 18.2021 8.36951 18.1996 8.09054L18.1803 5.91507L19.4746 4.16651C19.6406 3.94239 19.6879 3.65177 19.6018 3.38645Z" fill="#F9AF15"/>
<path d="M29.9571 5.97239C29.871 5.70714 29.6618 5.49983 29.3958 5.41598L27.3209 4.76219L26.0578 2.99084C25.8959 2.76379 25.6341 2.62891 25.3552 2.62891C25.0762 2.62891 24.8145 2.76379 24.6525 2.99084L23.3895 4.76219L21.3146 5.41598C21.0485 5.49983 20.8394 5.70708 20.7532 5.97239C20.667 6.23764 20.7143 6.52833 20.8803 6.75251L22.1746 8.50113L22.1553 10.6766C22.1528 10.9556 22.2853 11.2185 22.511 11.3825C22.7367 11.5465 23.0277 11.5911 23.2922 11.5027L25.3552 10.8121L27.4182 11.5027C27.5076 11.5327 27.6001 11.5473 27.6921 11.5473C27.872 11.5473 28.05 11.491 28.1994 11.3825C28.425 11.2185 28.5576 10.9556 28.555 10.6766L28.5357 8.50113L29.8301 6.75251C29.996 6.52833 30.0434 6.23764 29.9571 5.97239Z" fill="#F9AF15"/>
<path d="M9.24625 5.97233C9.16006 5.70708 8.95094 5.49977 8.68492 5.41592L6.61005 4.76213L5.34689 2.99084C5.18493 2.76379 4.92319 2.62891 4.64423 2.62891C4.36526 2.62891 4.10353 2.76379 3.94157 2.99084L2.67852 4.76219L0.603596 5.41598C0.337522 5.49983 0.128459 5.70708 0.0422672 5.97239C-0.043983 6.23764 0.00341947 6.52833 0.169357 6.75251L1.4637 8.50112L1.44436 10.6766C1.4419 10.9555 1.57438 11.2184 1.80008 11.3824C2.02579 11.5465 2.31682 11.5911 2.58132 11.5027L4.64429 10.8121L6.70726 11.5027C6.79662 11.5325 6.88908 11.5472 6.98107 11.5472C7.16101 11.5472 7.33902 11.4909 7.48838 11.3824C7.71402 11.2184 7.84656 10.9554 7.8441 10.6765L7.82476 8.50107L9.1191 6.75245C9.2851 6.52833 9.3325 6.23764 9.24625 5.97233Z" fill="#F9AF15"/>
</g>
<defs>
<clipPath id="clip0_410_533671">
<rect width="30" height="30" fill="white"/>
</clipPath>
</defs>
</svg>
