<svg width="25" height="26" viewBox="0 0 25 26" fill="none" xmlns="http://www.w3.org/2000/svg">
<rect y="0.5" width="25" height="25" rx="5" fill="#161616"/>
<path d="M18.7861 9.74419L17.7287 8.7093C17.5861 8.56977 17.4079 8.5 17.2059 8.5C17.004 8.5 16.8257 8.56977 16.6832 8.7093L11.598 13.686L9.32871 11.4535C9.18614 11.314 9.00792 11.2442 8.80594 11.2442C8.60396 11.2442 8.42574 11.314 8.28317 11.4535L7.22574 12.4884C7.07129 12.6279 7 12.8023 7 13C7 13.1977 7.07129 13.3721 7.21386 13.5116L10.0178 16.2558L11.0752 17.2907C11.2178 17.4302 11.396 17.5 11.598 17.5C11.8 17.5 11.9782 17.4302 12.1208 17.2907L13.1782 16.2558L18.7861 10.7674C18.9287 10.6279 19 10.4535 19 10.2558C19 10.0581 18.9287 9.88372 18.7861 9.74419Z" fill="white"/>
</svg>
