<svg width="30" height="30" viewBox="0 0 30 30" fill="none" xmlns="http://www.w3.org/2000/svg">
<path fill-rule="evenodd" clip-rule="evenodd" d="M8.00064 2.72805C9.2064 2.63182 10.3511 2.15769 11.2717 1.37313C13.4201 -0.457711 16.5799 -0.457711 18.7282 1.37313C19.6489 2.15769 20.7936 2.63182 21.9994 2.72805C24.813 2.95258 27.0474 5.18692 27.2719 8.00064C27.3682 9.2064 27.8422 10.3511 28.6269 11.2717C30.4577 13.4201 30.4577 16.5799 28.6269 18.7282C27.8422 19.6489 27.3682 20.7936 27.2719 21.9994C27.0474 24.813 24.813 27.0474 21.9994 27.2719C20.7936 27.3682 19.6489 27.8422 18.7282 28.6269C16.5799 30.4577 13.4201 30.4577 11.2717 28.6269C10.3511 27.8422 9.2064 27.3682 8.00064 27.2719C5.18692 27.0474 2.95258 24.813 2.72805 21.9994C2.63182 20.7936 2.15769 19.6489 1.37313 18.7282C-0.457711 16.5799 -0.457711 13.4201 1.37313 11.2717C2.15769 10.3511 2.63182 9.2064 2.72805 8.00064C2.95258 5.18692 5.18692 2.95258 8.00064 2.72805ZM21.9508 12.5758C22.683 11.8436 22.683 10.6564 21.9508 9.92417C21.2186 9.19194 20.0314 9.19194 19.2992 9.92417L13.125 16.0984L10.7008 13.6742C9.96858 12.9419 8.78141 12.9419 8.04917 13.6742C7.31694 14.4064 7.31694 15.5936 8.04917 16.3258L11.7992 20.0758C12.5314 20.808 13.7186 20.808 14.4508 20.0758L21.9508 12.5758Z" fill="#F9AF15"/>
</svg>
