<svg width="41" height="41" viewBox="0 0 41 41" fill="none" xmlns="http://www.w3.org/2000/svg">
<rect x="0.333252" y="0.5" width="40" height="40" rx="20" fill="#43C560"/>
<path d="M19.9794 10.5C14.6541 10.5 10.3333 14.8209 10.3333 20.1462C10.3333 22.2785 11.0235 24.2426 12.1907 25.8418L10.9617 29.4781L14.7944 28.2828C16.2927 29.2368 18.0715 29.7923 19.9794 29.7923C25.3047 29.7923 29.6256 25.4715 29.6256 20.1462C29.6256 14.8209 25.3047 10.5 19.9794 10.5ZM24.3957 25.32C22.6449 26.0214 20.5574 25.3424 18.2735 23.6085C15.9896 21.8745 14.4858 19.4335 14.3848 17.621C14.2837 15.8085 15.7596 14.8938 16.562 14.8994C17.3645 14.905 18.2455 17.4695 18.2567 17.8623C18.2679 18.2607 17.2747 18.9678 17.2354 19.3044C17.1961 19.6411 18.5878 21.3021 19.177 21.7511C19.7606 22.1944 20.967 23.0473 21.5899 22.9688C22.2072 22.8846 22.6168 21.6444 23.0096 21.5659C23.4024 21.4873 25.546 22.5535 25.7593 22.8285C25.9725 23.109 25.9501 24.7027 24.3957 25.32Z" fill="white"/>
</svg>
