<svg width="42" height="41" viewBox="0 0 42 41" fill="none" xmlns="http://www.w3.org/2000/svg">
<g clip-path="url(#clip0_11_1045)">
<path d="M21.0208 41C32.3426 41 41.5208 31.8218 41.5208 20.5C41.5208 9.17816 32.3426 0 21.0208 0C9.69892 0 0.520752 9.17816 0.520752 20.5C0.520752 31.8218 9.69892 41 21.0208 41Z" fill="#FF0000"/>
<path d="M27.7295 12.7881H14.3128C13.7766 12.7881 13.2457 12.8937 12.7504 13.099C12.2551 13.3043 11.8051 13.6051 11.4261 13.9844C11.0471 14.3636 10.7465 14.8138 10.5416 15.3093C10.3366 15.8048 10.2313 16.3357 10.2317 16.8719V24.1278C10.2313 24.664 10.3366 25.195 10.5416 25.6904C10.7465 26.1859 11.0471 26.6361 11.4261 27.0154C11.8051 27.3946 12.2551 27.6955 12.7504 27.9007C13.2457 28.106 13.7766 28.2116 14.3128 28.2116H27.7295C28.2657 28.2116 28.7966 28.106 29.2919 27.9007C29.7872 27.6955 30.2373 27.3946 30.6163 27.0154C30.9953 26.6361 31.2958 26.1859 31.5008 25.6904C31.7057 25.195 31.811 24.664 31.8106 24.1278V16.8719C31.811 16.3357 31.7057 15.8048 31.5008 15.3093C31.2958 14.8138 30.9953 14.3636 30.6163 13.9844C30.2373 13.6051 29.7872 13.3043 29.2919 13.099C28.7966 12.8937 28.2657 12.7881 27.7295 12.7881ZM18.1781 23.8068V17.1929L23.8642 20.4999L18.1781 23.8068Z" fill="white"/>
</g>
<defs>
<clipPath id="clip0_11_1045">
<rect width="41" height="41" fill="white" transform="translate(0.520752)"/>
</clipPath>
</defs>
</svg>
